<?xml version="1.0" encoding="UTF-8" standalone="no"?>
<!-- Created with Inkscape (http://www.inkscape.org/) -->

<svg
   xmlns:dc="http://purl.org/dc/elements/1.1/"
   xmlns:cc="http://creativecommons.org/ns#"
   xmlns:rdf="http://www.w3.org/1999/02/22-rdf-syntax-ns#"
   xmlns:svg="http://www.w3.org/2000/svg"
   xmlns="http://www.w3.org/2000/svg"
   xmlns:sodipodi="http://sodipodi.sourceforge.net/DTD/sodipodi-0.dtd"
   xmlns:inkscape="http://www.inkscape.org/namespaces/inkscape"
   id="svg2"
   version="1.1"
   inkscape:version="0.48.2 r9819"
   width="2250.8533"
   height="500.52377"
   xml:space="preserve"
   sodipodi:docname="curious_frog_wide_1b.svg"
   inkscape:export-filename="/Users/thimo/Dropbox/Defrog/Marketing/Logo/curious_frog_wide_1c.png"
   inkscape:export-xdpi="90"
   inkscape:export-ydpi="90"><metadata
     id="metadata8"><rdf:RDF><cc:Work
         rdf:about=""><dc:format>image/svg+xml</dc:format><dc:type
           rdf:resource="http://purl.org/dc/dcmitype/StillImage" /><dc:title /></cc:Work></rdf:RDF></metadata><defs
     id="defs6"><clipPath
   clipPathUnits="userSpaceOnUse"
   id="clipPath18"><path
     d="m 0,0 1779,0 0,1663 L 0,1663 0,0 z"
     id="path20"
     inkscape:connector-curvature="0" /></clipPath><clipPath
   clipPathUnits="userSpaceOnUse"
   id="clipPath98"><path
     d="m 0.06,1662.15 1778.49,0 0,-1662.09 -1778.49,0 0,1662.09 z"
     id="path100"
     inkscape:connector-curvature="0" /></clipPath><clipPath
   clipPathUnits="userSpaceOnUse"
   id="clipPath104"><path
     d="m 0,0 1779,0 0,1663 L 0,1663 0,0 z"
     id="path106"
     inkscape:connector-curvature="0" /></clipPath><clipPath
   clipPathUnits="userSpaceOnUse"
   id="clipPath116"><path
     d="m 0,0 1779,0 0,1663 L 0,1663 0,0 z"
     id="path118"
     inkscape:connector-curvature="0" /></clipPath><clipPath
   clipPathUnits="userSpaceOnUse"
   id="clipPath140"><path
     d="m 0.06,1662.15 1778.49,0 0,-1662.09 -1778.49,0 0,1662.09 z"
     id="path142"
     inkscape:connector-curvature="0" /></clipPath><clipPath
   clipPathUnits="userSpaceOnUse"
   id="clipPath146"><path
     d="m 0,0 1779,0 0,1663 L 0,1663 0,0 z"
     id="path148"
     inkscape:connector-curvature="0" /></clipPath><clipPath
   id="clipPath146-2"
   clipPathUnits="userSpaceOnUse"><path
     inkscape:connector-curvature="0"
     id="path148-3"
     d="m 0,0 1779,0 0,1663 L 0,1663 0,0 z" /></clipPath><clipPath
   id="clipPath140-5"
   clipPathUnits="userSpaceOnUse"><path
     inkscape:connector-curvature="0"
     id="path142-1"
     d="m 0.06,1662.15 1778.49,0 0,-1662.09 -1778.49,0 0,1662.09 z" /></clipPath><clipPath
   id="clipPath116-0"
   clipPathUnits="userSpaceOnUse"><path
     inkscape:connector-curvature="0"
     id="path118-4"
     d="m 0,0 1779,0 0,1663 L 0,1663 0,0 z" /></clipPath><clipPath
   id="clipPath104-6"
   clipPathUnits="userSpaceOnUse"><path
     inkscape:connector-curvature="0"
     id="path106-5"
     d="m 0,0 1779,0 0,1663 L 0,1663 0,0 z" /></clipPath><clipPath
   id="clipPath98-1"
   clipPathUnits="userSpaceOnUse"><path
     inkscape:connector-curvature="0"
     id="path100-7"
     d="m 0.06,1662.15 1778.49,0 0,-1662.09 -1778.49,0 0,1662.09 z" /></clipPath><clipPath
   id="clipPath18-2"
   clipPathUnits="userSpaceOnUse"><path
     inkscape:connector-curvature="0"
     id="path20-6"
     d="m 0,0 1779,0 0,1663 L 0,1663 0,0 z" /></clipPath>



</defs><sodipodi:namedview
     pagecolor="#000000"
     bordercolor="#666666"
     borderopacity="1"
     objecttolerance="10"
     gridtolerance="10"
     guidetolerance="10"
     inkscape:pageopacity="0"
     inkscape:pageshadow="2"
     inkscape:window-width="1920"
     inkscape:window-height="1104"
     id="namedview4"
     showgrid="false"
     inkscape:zoom="0.99629571"
     inkscape:cx="1623.5825"
     inkscape:cy="206.86867"
     inkscape:window-x="0"
     inkscape:window-y="0"
     inkscape:window-maximized="1"
     inkscape:current-layer="layer4"
     width="1052.36px"
     units="cm"
     fit-margin-top="2"
     fit-margin-left="2"
     fit-margin-right="2"
     fit-margin-bottom="1"
     showguides="true"
     inkscape:guide-bbox="true" /><g
     inkscape:groupmode="layer"
     id="layer2"
     inkscape:label="Defrog bg white"
     style="display:none"
     transform="translate(-17.651536,-1724.9284)"><path
   style="font-size:400px;font-style:normal;font-variant:normal;font-weight:500;font-stretch:normal;text-align:center;line-height:125%;letter-spacing:0px;word-spacing:0px;text-anchor:middle;fill:#ffffff;fill-opacity:1;stroke:none;font-family:BlairMdITC TT;-inkscape-font-specification:BlairMdITC TT Medium"
   d="m 261.65625,1791.625 c -59.07273,0.1227 -118.14586,0.036 -177.21875,0.062 0,103.1979 0,206.3958 0,309.5937 76.35678,-0.793 152.78681,1.6736 229.09375,-1.4687 59.35846,-7.2093 115.5203,-48.9179 132.15625,-107.4687 15.40731,-54.1333 1.95403,-117.7309 -40.09375,-156.3438 -31.27359,-29.1787 -74.55882,-43.3834 -117.12399,-44.0761 -8.93253,-0.3371 -17.87561,-0.3759 -26.81351,-0.2989 z m 24.53125,63.625 c 35.62791,-0.06 72.94952,19.9746 86.10522,54.1535 15.34453,36.9839 7.59426,85.3679 -25.29272,110.3153 -17.96533,14.0082 -41.06173,19.6499 -63.59367,17.8658 -43.65579,0.341 -87.31277,-0.1078 -130.96883,0.1029 0,-60.8021 0,-121.6042 0,-182.4063 44.58333,-0.01 89.16669,0.023 133.75,-0.031 z"
   id="path3683"
   inkscape:connector-curvature="0" /><path
   style="font-size:400px;font-style:normal;font-variant:normal;font-weight:500;font-stretch:normal;text-align:center;line-height:125%;letter-spacing:0px;word-spacing:0px;text-anchor:middle;fill:#ffffff;fill-opacity:1;stroke:none;font-family:BlairMdITC TT;-inkscape-font-specification:BlairMdITC TT Medium"
   d="m 503.8125,1837.2812 c 0,88.0001 0,176 0,264 94.9375,1e-4 189.875,0 284.8125,0 0,-21.1979 0,-42.3958 0,-63.5937 -72.27083,0 -144.54167,0 -216.8125,0 0,-14.1354 0,-28.2708 0,-42.4063 48.13542,0 96.27083,0 144.40625,0 0,-21.1979 0,-42.3958 0,-63.5937 -48.13542,0 -96.27083,0 -144.40625,0 0,-10.9271 0,-21.8542 0,-32.7813 69.20833,1e-4 138.41667,0 207.625,0 0,-21.2083 0,-42.4166 0,-63.625 -91.875,0 -183.75,0 -275.625,0 l 0,1 0,1 z"
   id="path3685"
   inkscape:connector-curvature="0" /><path
   style="font-size:400px;font-style:normal;font-variant:normal;font-weight:500;font-stretch:normal;text-align:center;line-height:125%;letter-spacing:0px;word-spacing:0px;text-anchor:middle;fill:#ffffff;fill-opacity:1;stroke:none;font-family:BlairMdITC TT;-inkscape-font-specification:BlairMdITC TT Medium"
   d="m 830.375,1837.2812 c 0,88.0001 0,176 0,264 22.66667,1e-4 45.33333,0 68,0 0,-35.3333 0,-70.6666 0,-106 48.13542,0 96.27083,0 144.4062,0 0,-21.1979 1e-4,-42.3958 0,-63.5937 -48.13537,0 -96.27078,0 -144.4062,0 0,-10.9271 0,-21.8542 0,-32.7813 69.20833,1e-4 138.4167,0 207.625,0 0,-21.2083 0,-42.4166 0,-63.625 -91.875,0 -183.75,0 -275.625,0 l 0,1 0,1 z"
   id="path3687"
   inkscape:connector-curvature="0" /><path
   style="font-size:400px;font-style:normal;font-variant:normal;font-weight:500;font-stretch:normal;text-align:center;line-height:125%;letter-spacing:0px;word-spacing:0px;text-anchor:middle;fill:#ffffff;fill-opacity:1;stroke:none;font-family:BlairMdITC TT;-inkscape-font-specification:BlairMdITC TT Medium"
   d="m 1343.0625,1835.125 c -68.2913,0.3208 -136.5833,0.1182 -204.875,0.1562 0,88.6667 0,177.3334 0,266 22.6667,1e-4 45.3333,0 68,0 0,-30.125 0,-60.2499 0,-90.375 35.6146,0 71.2292,1e-4 106.8437,0 21.4812,30.1162 42.9603,60.2339 64.4063,90.375 26.5833,1e-4 53.1667,0 79.75,0 -23.1038,-32.4065 -46.2084,-64.8124 -69.3125,-97.2187 27.2921,-9.0212 49.8818,-33.1629 53.3125,-62.25 6.5682,-33.9817 -5.965,-73.3476 -36.5,-91.5 -18.2789,-11.4576 -40.2017,-15.659 -61.625,-15.1875 z M 1337,1898.9062 c 12.4666,-0.1353 28.2613,1.6074 34.4688,14.0313 4.8195,10.7833 1.7921,27.4306 -10.7813,31.0625 -23.1669,6.9982 -47.6223,1.324 -71.375,3.2812 -27.7083,1e-4 -55.4167,0 -83.125,0 0,-16.125 0,-32.25 0,-48.375 43.6042,0 87.2083,1e-4 130.8125,0 z"
   id="path3689"
   inkscape:connector-curvature="0" /><path
   style="font-size:400px;font-style:normal;font-variant:normal;font-weight:500;font-stretch:normal;text-align:center;line-height:125%;letter-spacing:0px;word-spacing:0px;text-anchor:middle;fill:#ffffff;fill-opacity:1;stroke:none;font-family:BlairMdITC TT;-inkscape-font-specification:BlairMdITC TT Medium"
   d="m 1651.5625,1826.875 c -56.6916,-0.6882 -115.6703,23.2363 -149.125,69.9688 -31.2993,45.5761 -27.9695,112.3442 8.75,153.9062 5.8883,3.356 11.644,-3.1284 11.5,-8.8438 5.2457,-14.333 16.7881,-27.0707 31.9375,-30.9374 -10.1683,-7.6125 -12.3358,-20.9839 -18.8438,-31.0626 -17.3858,-13.0424 -24.9632,-41.031 -10.5784,-58.8347 10.6268,-12.81 28.9216,-22.5466 45.516,-15.2277 6.0935,2.3446 11.6597,6.1593 16.0624,11.0312 28.2659,-14.2347 62.5951,-23.2106 93.1563,-11.0625 6.3019,0.7538 9.3601,-6.1388 14.5937,-8.375 10.3544,-7.3916 25.6655,-12.7544 36.9097,-4.2721 11.9529,6.138 24.6406,15.0024 26.7466,29.2721 3.693,16.2639 -3.2742,33.4459 -15.875,43.8125 -4.5673,7.4031 2.4692,18.4231 11.1875,16.8125 11.6911,1.3058 25.5777,2.6872 33.25,12.875 4.8147,15.3521 0.6557,31.7308 1.8217,47.5298 0.1168,3.1841 -1.7502,10.5288 3.3971,10.3452 12.7945,-12.3507 21.1976,-28.8761 26.7187,-45.7187 14.0872,-43.7901 4.0133,-95.7878 -29.2632,-128.1822 -35.4256,-36.5559 -87.4616,-54.0833 -137.8618,-53.0366 z m 83.8437,162.6875 c -15.6953,13.0983 -35.5908,18.5456 -54.0624,26.4063 -20.023,10.5829 -43.4877,15.3465 -65.8722,10.4246 -14.4836,-0.8843 -29.1846,-2.1018 -43.5966,-1.4559 -7.149,2.719 -6.4412,12.7262 -1.25,17.0313 9.5958,14.8153 27.8912,23.734 45.5255,20.4079 11.1497,-1.0478 23.3453,-0.7203 32.412,6.6233 13.5844,6.7656 29.1028,9.8266 41.625,18.8438 6.009,-21.4196 31.9261,-25.2358 42.9063,-42.7813 10.1852,-17.2399 6.4358,-38.4068 5.1562,-57.4063 -0.9479,0.6355 -1.8958,1.2709 -2.8438,1.9063 z"
   id="path3691"
   inkscape:connector-curvature="0" /><path
   style="font-size:400px;font-style:normal;font-variant:normal;font-weight:500;font-stretch:normal;text-align:center;line-height:125%;letter-spacing:0px;word-spacing:0px;text-anchor:middle;fill:#ffffff;fill-opacity:1;stroke:none;font-family:BlairMdITC TT;-inkscape-font-specification:BlairMdITC TT Medium"
   d="m 2027.0625,1826.8438 c -53.2621,0.6283 -108.4632,21.2796 -142.1421,63.6667 -36.6054,46.7737 -33.9857,120.3882 7.2595,163.4728 34.1524,37.4201 86.0049,54.5719 135.976,54.5761 48.4098,1.0771 99.398,-12.5885 134.3129,-47.2469 24.5144,-24.3742 38.5405,-58.4998 39.1255,-93.1518 0.3,-11.8804 0.2547,-21.752 0.2547,-21.752 l -37.1919,0 c 0,0 -102.7925,-0.1569 -154.1259,0.091 0,21.1979 0,42.3958 0,63.5938 34.6251,-10e-5 69.25,0 103.875,0 -16.5683,23.6773 -46.4669,34.6652 -74.592,34.9325 -32.8752,2.0885 -68.3898,-5.2621 -92.2204,-29.4325 -26.3632,-26.1956 -24.6517,-74.383 3.9139,-98.156 29.6413,-26.3159 72.791,-31.7729 110.5888,-23.4821 22.7337,5.3643 43.9688,17.2733 59.6535,34.7005 21.06,-10.5686 42.2163,-21.0514 63.3438,-31.3437 -36.9058,-46.8366 -97.0573,-73.0927 -156.5625,-70.4873 l -0.9999,0.013 -0.4689,0.01 z"
   id="path3693"
   inkscape:connector-curvature="0"
   sodipodi:nodetypes="ccccccccccccccccccccc" />





</g><g
     style="display:inline"
     inkscape:label="Defrog bg white 2"
     id="g4170"
     inkscape:groupmode="layer"
     transform="translate(5.9286417,5.9020281)"><path
   style="font-size:400px;font-style:normal;font-variant:normal;font-weight:500;font-stretch:normal;text-align:center;line-height:125%;letter-spacing:0px;word-spacing:0px;text-anchor:middle;fill:#ffffff;fill-opacity:1;stroke:none;font-family:BlairMdITC TT;-inkscape-font-specification:BlairMdITC TT Medium"
   d="m 238.84375,63.03125 c -58.63525,0.135229 -117.27085,0.0285 -175.90625,0.0625 0,101.86458 0,203.72917 0,305.59375 74.69245,-0.66027 149.43779,1.37304 224.09375,-1.15625 58.35219,-6.10169 114.09537,-45.81165 132.11903,-102.67061 13.97311,-45.1634 7.59617,-97.25162 -19.46278,-136.32939 C 374.22447,92.541515 331.88058,70.312061 288.3839,65.304367 272.04207,63.076619 255.35621,62.815975 238.84375,63.03125 z m 23.90625,59.625 c 36.02829,-0.006 73.61387,19.99644 87.5,54.40625 14.07929,33.46695 10.06975,76.03488 -14.625,103.625 -18.00125,19.7419 -45.19259,30.23653 -71.81233,28.25055 -45.62393,0.45757 -91.25042,-0.0859 -136.87517,0.1557 0,-62.13542 0,-124.27083 0,-186.40625 45.27083,-0.007 90.54169,0.0215 135.8125,-0.0312 z"
   id="path4199"
   inkscape:connector-curvature="0" /><path
   style="font-size:400px;font-style:normal;font-variant:normal;font-weight:500;font-stretch:normal;text-align:center;line-height:125%;letter-spacing:0px;word-spacing:0px;text-anchor:middle;fill:#ffffff;fill-opacity:1;stroke:none;font-family:BlairMdITC TT;-inkscape-font-specification:BlairMdITC TT Medium"
   d="m 482.3125,108.6875 c 0,86.66667 0,173.33333 0,260 93.60417,0 187.20833,0 280.8125,0 0,-19.86458 0,-39.72917 0,-59.59375 -72.27083,0 -144.54167,0 -216.8125,0 0,-15.46875 0,-30.9375 0,-46.40625 48.13542,0 96.27083,0 144.40625,0 0,-19.86458 0,-39.72917 0,-59.59375 -48.13542,0 -96.27083,0 -144.40625,0 0,-12.27083 0,-24.54167 0,-36.8125 69.19792,0 138.39583,0 207.59375,0 0,-19.86458 0,-39.72917 0,-59.59375 -90.53125,0 -181.0625,0 -271.59375,0 l 0,1 0,1 z"
   id="path4201"
   inkscape:connector-curvature="0" /><path
   style="font-size:400px;font-style:normal;font-variant:normal;font-weight:500;font-stretch:normal;text-align:center;line-height:125%;letter-spacing:0px;word-spacing:0px;text-anchor:middle;fill:#ffffff;fill-opacity:1;stroke:none;font-family:BlairMdITC TT;-inkscape-font-specification:BlairMdITC TT Medium"
   d="m 808.875,108.6875 c 0,86.66667 0,173.33333 0,260 21.33333,0 42.66667,0 64,0 0,-35.33333 0,-70.66667 0,-106 48.13542,0 96.27083,0 144.4062,0 10e-5,-19.86458 0,-39.72917 0,-59.59375 -48.13537,0 -96.27078,0 -144.4062,0 0,-12.27083 0,-24.54167 0,-36.8125 69.19792,0 138.3958,0 207.5938,0 0,-19.86458 -1e-4,-39.72917 0,-59.59375 -90.5313,0 -181.06255,0 -271.5938,0 l 0,1 0,1 z"
   id="path4203"
   inkscape:connector-curvature="0" /><path
   style="font-size:400px;font-style:normal;font-variant:normal;font-weight:500;font-stretch:normal;text-align:center;line-height:125%;letter-spacing:0px;word-spacing:0px;text-anchor:middle;fill:#ffffff;fill-opacity:1;stroke:none;font-family:BlairMdITC TT;-inkscape-font-specification:BlairMdITC TT Medium"
   d="m 1321.1562,106.625 c -68.1543,0.11736 -136.3128,0.0768 -204.4687,0.0625 0,87.33333 0,174.66667 0,262 21.3333,0 42.6667,0 64,0 0,-30.13542 0,-60.27083 0,-90.40625 36.625,0 73.25,0 109.875,0 21.4826,30.12553 42.9805,60.24028 64.4063,90.40625 24.9374,0 49.875,0 74.8124,0 -22.8764,-32.1031 -45.7497,-64.20851 -68.625,-96.3125 26.5999,-8.01345 49.6324,-30.15844 53.875,-58.28125 7.1445,-32.06275 -2.4442,-69.86716 -30.0624,-89.3125 -18.1484,-13.50719 -41.4315,-18.64307 -63.8126,-18.15625 z m -7.7187,59.65625 c 13.3692,-0.0613 30.3076,1.9088 36.4687,15.625 5.0741,11.82902 1.4782,29.65393 -12.25,33.5 -22.2783,6.82849 -45.8476,1.48752 -68.7187,3.28125 -29.4167,0 -58.8333,0 -88.25,0 0,-17.46875 0,-34.9375 0,-52.40625 44.25,0 88.5,0 132.75,0 z"
   id="path4205"
   inkscape:connector-curvature="0" /><path
   style="font-size:400px;font-style:normal;font-variant:normal;font-weight:500;font-stretch:normal;text-align:center;line-height:125%;letter-spacing:0px;word-spacing:0px;text-anchor:middle;fill:#ffffff;fill-opacity:1;stroke:none;font-family:BlairMdITC TT;-inkscape-font-specification:BlairMdITC TT Medium"
   d="m 1627.6562,98.3125 c -56.0431,-0.556685 -114.3558,23.02846 -147.3359,69.39455 -32.8288,47.87133 -26.0729,119.33221 16.3672,159.16795 35.8689,35.81717 85.2819,33.45101 135.1763,31.99929 49.9241,-0.46327 104.7065,-1.26078 137.6674,-39.87429 26.1775,-30.11051 36.1824,-73.11987 26.2972,-111.87847 -7.027,-29.71772 -25.802,-55.7056 -50.5159,-73.18403 -33.514,-25.0138 -76.0092,-36.442947 -117.6563,-35.625 z"
   id="path4207"
   inkscape:connector-curvature="0"
   sodipodi:nodetypes="cccccccc" /><path
   style="font-size:400px;font-style:normal;font-variant:normal;font-weight:500;font-stretch:normal;text-align:center;line-height:125%;letter-spacing:0px;word-spacing:0px;text-anchor:middle;fill:#ffffff;fill-opacity:1;stroke:none;font-family:BlairMdITC TT;-inkscape-font-specification:BlairMdITC TT Medium"
   d="m 2011.0938,98.3125 c -53.6703,-1.204338 -109.9065,17.75038 -145.1876,59.28125 -37.3173,43.9707 -37.7131,114.66224 -0.5937,158.78125 31.2047,38.45196 81.282,57.37225 130.0298,59.27201 49.5417,2.90528 102.3067,-9.20041 139.3139,-43.55326 25.4081,-23.73299 40.2779,-57.66094 41.2793,-92.43567 0.4342,-7.26296 0.3372,-14.54332 0.2207,-21.81433 -62.375,-0.0339 -124.75,-0.0344 -187.125,0.0625 0,19.86458 1e-4,39.72917 0,59.59375 35.2084,0 70.4167,0 105.625,0 -15.5849,24.88465 -45.308,37.74665 -74.0312,38.59375 -34.8353,3.08876 -73.1942,-4.12048 -98.1875,-30.0625 -25.9778,-26.05403 -25.4897,-73.15981 1.7696,-98.33211 27.4701,-26.71172 68.9837,-33.77061 105.8241,-28.10539 25.4319,4.46169 50.7397,15.63045 67.5313,35.96875 20.3055,-9.81492 40.6183,-19.61637 60.875,-29.53125 -35.2976,-43.37985 -91.2084,-68.921285 -147.3437,-67.71875 z"
   id="path4209"
   inkscape:connector-curvature="0" />

</g><g
     inkscape:groupmode="layer"
     id="layer4"
     inkscape:label="Defrog 2"
     style="display:inline"
     transform="translate(5.9286417,5.9020281)"><g
       id="layer2-4"
       inkscape:label="Defrog BlairMdITC"
       style="display:inline"
       transform="translate(-23.510538,-1730.6007)"><g
   transform="translate(54.593195,-65.651309)"
   style="font-size:400px;font-style:normal;font-variant:normal;font-weight:500;font-stretch:normal;text-align:center;line-height:125%;letter-spacing:0px;word-spacing:0px;text-anchor:middle;fill:#1574c4;fill-opacity:1;stroke:none;display:inline;font-family:BlairMdITC TT;-inkscape-font-specification:BlairMdITC TT Medium"
   id="flowRoot3207"><path
     d="m 223.05312,1867.3479 c 50.39972,3e-4 90.26635,13.467 119.6,40.4 29.59962,26.6669 44.39961,62.5335 44.40001,107.6 -4e-4,41.3335 -15.60039,75.7334 -46.80001,103.2 -29.06698,25.6 -65.06695,38.4 -108,38.4 l -192.399995,0 0,-289.6 183.199995,0 m 13.2,246 c 28.79973,10e-5 52.39971,-9.1999 70.80001,-27.6 18.66633,-18.6666 27.99965,-42.5332 28,-71.6 -3.5e-4,-30.9331 -10.00034,-55.8665 -30,-74.8 -19.73363,-18.9331 -45.73361,-28.3997 -78.00001,-28.4 l -139.199995,0 0,202.4 148.399995,0"
     style="fill:#1574c4"
     id="path4475"
     inkscape:connector-curvature="0" /><path
     d="m 724.03437,2156.9479 -264.8,0 0,-246 255.60001,0 0,43.6 -207.60001,0 0,52.8 144.4,0 0,43.6 -144.4,0 0,62.4 216.8,0 0,43.6"
     style="fill:#1574c4"
     id="path4477"
     inkscape:connector-curvature="0" /><path
     d="m 1041.3969,1954.5479 -207.60003,0 0,52.8 144.4,0 0,43.6 -144.4,0 0,106 -48,0 0,-246 255.60003,0 0,43.6"
     style="fill:#1574c4"
     id="path4479"
     inkscape:connector-curvature="0" /><path
     d="m 1383.2094,2156.9479 -55.2,0 -64.4,-90.4 -122,0 0,90.4 -48,0 0,-246 198.8,0 c 26.133,3e-4 46.933,7.0669 62.4,21.2 15.4663,14.1336 23.1996,33.0669 23.2,56.8 -4e-4,40.8001 -20.4003,65.7335 -61.2,74.8 l 66.4,93.2 m -98,-134 c 29.0664,2e-4 43.5997,-11.0665 43.6,-33.2 -3e-4,-23.4665 -15.467,-35.1998 -46.4,-35.2 l -140.8,0 0,68.4 143.6,0"
     style="fill:#1574c4"
     id="path4481"
     inkscape:connector-curvature="0" /><path
     d="m 1760.2219,2033.3479 c -4e-4,40.2668 -17.2004,73.0667 -51.6,98.4 -29.3336,21.6 -64.9966,14.333 -108.9963,14.333 -44.0002,0 -81.8038,7.267 -111.4037,-14.333 -34.4001,-25.0666 -51.6001,-57.8666 -51.6,-98.4 -1e-4,-39.9998 17.3333,-72.5331 52,-97.6 30.3999,-22.1331 67.0665,-33.1997 110,-33.2 42.6664,3e-4 79.1997,11.0669 109.6,33.2 34.6663,25.3335 51.9996,57.8668 52,97.6"
     style="fill:#1574c4"
     id="path4483"
     inkscape:connector-curvature="0"
     sodipodi:nodetypes="ccscscccc" /><path
     d="m 2136.7469,2022.1479 0,7.6 c -4e-4,40.0001 -14.667,72.4001 -44,97.2 -29.067,24.8 -67.8669,37.2 -116.4,37.2 -43.7335,0 -80.4001,-10.8 -110,-32.4 -34.4001,-25.0666 -51.6001,-57.8666 -51.6,-98.4 -1e-4,-39.9998 17.1999,-72.5331 51.6,-97.6 30.1332,-22.1331 67.7332,-33.1997 112.8,-33.2 54.3997,3e-4 99.4664,19.0669 135.2,57.2 l -45.2,22.4 c -25.0669,-23.9998 -56.0003,-35.9998 -92.8,-36 -32.5335,2e-4 -59.3335,8.2669 -80.4,24.8 -21.0668,16.5335 -31.6001,37.3335 -31.6,62.4 -10e-5,25.8668 10.2666,46.9334 30.8,63.2 20.5332,16.2667 47.5998,24.4001 81.2,24.4 50.3997,10e-5 83.8664,-18.3999 100.4,-55.2 l -110.8,0 0,-43.6 170.8,0"
     style="fill:#1574c4"
     id="path4485"
     inkscape:connector-curvature="0" /></g><text
   xml:space="preserve"
   style="font-size:40px;font-style:normal;font-variant:normal;font-weight:500;font-stretch:normal;line-height:125%;letter-spacing:0px;word-spacing:0px;fill:#000000;fill-opacity:1;stroke:none;font-family:BlairMdITC TT;-inkscape-font-specification:BlairMdITC TT Medium"
   x="2634.2588"
   y="2157.4109"
   id="text3220"
   sodipodi:linespacing="125%"><tspan
     sodipodi:role="line"
     id="tspan3222"
     x="2634.2588"
     y="2157.4109" /></text>




<text
   xml:space="preserve"
   style="font-size:40px;font-style:normal;font-variant:normal;font-weight:500;font-stretch:normal;line-height:125%;letter-spacing:0px;word-spacing:0px;fill:#000000;fill-opacity:1;stroke:none;font-family:BlairMdITC TT;-inkscape-font-specification:BlairMdITC TT Medium"
   x="5052.314"
   y="2833.7554"
   id="text3224"
   sodipodi:linespacing="125%"><tspan
     sodipodi:role="line"
     id="tspan3226"
     x="5052.314"
     y="2833.7554" /></text>




</g></g><g
     transform="translate(-17.651536,-1724.9284)"
     style="display:none"
     inkscape:label="Defrog BlairMdITC"
     id="g3121"
     inkscape:groupmode="layer"><path
   d="m 277.64632,1801.6966 c 50.39972,3e-4 90.26634,13.467 119.59999,40.4 29.59962,26.6669 44.39961,62.5335 44.40001,107.6 -4e-4,41.3335 -15.60039,75.7334 -46.80001,103.2 -29.06698,25.6 -65.06695,38.4 -108,38.4 l -192.39999,0 0,-289.6 183.2,0 m 13.19999,246 c 28.79974,10e-5 52.39971,-9.1999 70.80001,-27.6 18.66633,-18.6666 27.99965,-42.5332 28,-71.6 -3.5e-4,-30.9331 -10.00034,-55.8665 -30,-74.8 -19.73363,-18.9331 -45.73361,-28.3997 -78,-28.4 l -139.2,0 0,202.4 148.39999,0"
   style="font-size:400px;font-style:normal;font-variant:normal;font-weight:500;font-stretch:normal;text-align:center;line-height:125%;letter-spacing:0px;word-spacing:0px;text-anchor:middle;fill:#1574c4;fill-opacity:1;stroke:none;font-family:BlairMdITC TT;-inkscape-font-specification:BlairMdITC TT Medium"
   id="path3125"
   inkscape:connector-curvature="0" /><path
   d="m 778.62756,2091.2966 -264.8,0 0,-246 255.60002,0 0,43.6 -207.60001,0 0,52.8 144.4,0 0,43.6 -144.4,0 0,62.4 216.8,0 0,43.6"
   style="font-size:400px;font-style:normal;font-variant:normal;font-weight:500;font-stretch:normal;text-align:center;line-height:125%;letter-spacing:0px;word-spacing:0px;text-anchor:middle;fill:#1574c4;fill-opacity:1;stroke:none;font-family:BlairMdITC TT;-inkscape-font-specification:BlairMdITC TT Medium"
   id="path3127"
   inkscape:connector-curvature="0" /><path
   d="m 1095.9901,1888.8966 -207.60004,0 0,52.8 144.40004,0 0,43.6 -144.40004,0 0,106 -48,0 0,-246 255.60004,0 0,43.6"
   style="font-size:400px;font-style:normal;font-variant:normal;font-weight:500;font-stretch:normal;text-align:center;line-height:125%;letter-spacing:0px;word-spacing:0px;text-anchor:middle;fill:#1574c4;fill-opacity:1;stroke:none;font-family:BlairMdITC TT;-inkscape-font-specification:BlairMdITC TT Medium"
   id="path3129"
   inkscape:connector-curvature="0" /><path
   d="m 1437.8026,2091.2966 -55.2,0 -64.4,-90.4 -122,0 0,90.4 -48,0 0,-246 198.8,0 c 26.133,3e-4 46.933,7.0669 62.4,21.2 15.4663,14.1336 23.1996,33.0669 23.2,56.8 -4e-4,40.8001 -20.4003,65.7335 -61.2,74.8 l 66.4,93.2 m -98,-134 c 29.0664,2e-4 43.5997,-11.0665 43.6,-33.2 -3e-4,-23.4665 -15.467,-35.1998 -46.4,-35.2 l -140.8,0 0,68.4 143.6,0"
   style="font-size:400px;font-style:normal;font-variant:normal;font-weight:500;font-stretch:normal;text-align:center;line-height:125%;letter-spacing:0px;word-spacing:0px;text-anchor:middle;fill:#1574c4;fill-opacity:1;stroke:none;font-family:BlairMdITC TT;-inkscape-font-specification:BlairMdITC TT Medium"
   id="path3131"
   inkscape:connector-curvature="0" /><path
   inkscape:connector-curvature="0"
   style="font-size:400px;font-style:normal;font-variant:normal;font-weight:500;font-stretch:normal;text-align:center;line-height:125%;letter-spacing:0px;word-spacing:0px;text-anchor:middle;fill:#1574c4;fill-opacity:1;stroke:none;font-family:BlairMdITC TT;-inkscape-font-specification:BlairMdITC TT Medium"
   d="m 1653.2052,1836.8929 c -42.9335,3e-4 -79.6001,11.0857 -110,33.2188 -34.6667,25.0669 -52.0001,57.5939 -52,97.5937 -1e-4,26.6712 7.4495,49.9942 22.3438,69.9688 2.0135,-6.0907 5.5485,-11.8232 9.75,-16.375 3.6203,-6.1675 8.9367,-10.838 15.0624,-14.1875 -3.8115,-5.9519 -6.9354,-12.3168 -8.5937,-19.1875 -0.021,-0.021 -0.042,-0.042 -0.062,-0.062 -12.8468,-9.4363 -20.9554,-25.7586 -21.7812,-41.6563 -1.7924,-13.0777 3.6058,-27.9106 14,-36.0937 2.9723,-3.0629 6.3801,-5.7334 10.0937,-7.8438 16.0693,-13.7699 41.2948,-10.5978 56.5937,2.6875 28.1888,-12.9377 61.7301,-20.6845 91.8438,-9.5937 10.8105,-8.1097 23.1463,-16.6425 37.4062,-16.6875 0.6472,-0.046 1.3048,-0.072 1.9376,-0.062 9.4897,0.1332 17.392,6.1637 24.9687,11.3125 0.072,0.043 0.1468,0.081 0.2187,0.125 17.5569,6.9909 26.431,29.6604 23.5938,48.1562 -0.9767,11.8595 -7.1451,24.1279 -16.5938,31.75 -0.3354,0.8312 -0.6373,1.6971 -0.9062,2.5625 3.2659,-0.044 6.5114,0.4517 9.7188,0.9688 13.4149,2.954 30.7312,6.2496 36.4062,20.5312 1.8756,11.2244 2.4854,22.8954 1.4062,34.3438 10.8062,-17.8775 16.2186,-38.0877 16.2188,-60.6563 -4e-4,-39.7332 -17.3337,-72.2602 -52,-97.5937 -30.4003,-22.1331 -66.9586,-33.2185 -109.625,-33.2188 z m 76.3438,168.5625 c -4.8619,3.3807 -10.1116,6.2646 -15.2813,8.7188 -19.9296,4.9442 -37.3264,17.3192 -57.5313,21.4687 -20.4938,6.3418 -41.6929,-0.6697 -62.4687,-0.5937 -5.3593,0.5103 -10.8942,0.3241 -16.3437,-0.5313 4.3817,6.4685 9.4004,12.3533 16.7187,15.8125 15.6969,5.7333 33.5908,-1.8618 49.4375,4.3437 12.3648,9.2094 28.3323,11.7802 41.8125,19.0313 8.7876,-13.9631 25.4979,-19.7483 37,-30.875 7.5494,-11.1103 7.5702,-24.266 6.6563,-37.375 z"
   id="path3133" /><path
   d="m 2191.3401,1956.4966 0,7.6 c -4e-4,40.0001 -14.667,72.4001 -44,97.2 -29.067,24.8 -67.8669,37.2 -116.4,37.2 -43.7335,0 -80.4001,-10.8 -110,-32.4 -34.4001,-25.0666 -51.6001,-57.8666 -51.6,-98.4 -10e-5,-39.9998 17.1999,-72.5331 51.6,-97.6 30.1332,-22.1331 67.7332,-33.1997 112.8,-33.2 54.3997,3e-4 99.4664,19.0669 135.2,57.2 l -45.2,22.4 c -25.0669,-23.9998 -56.0003,-35.9998 -92.8,-36 -32.5335,2e-4 -59.3335,8.2669 -80.4,24.8 -21.0668,16.5335 -31.6001,37.3335 -31.6,62.4 -10e-5,25.8668 10.2666,46.9334 30.8,63.2 20.5332,16.2667 47.5998,24.4001 81.2,24.4 50.3997,10e-5 83.8664,-18.3999 100.4,-55.2 l -110.8,0 0,-43.6 170.8,0"
   style="font-size:400px;font-style:normal;font-variant:normal;font-weight:500;font-stretch:normal;text-align:center;line-height:125%;letter-spacing:0px;word-spacing:0px;text-anchor:middle;fill:#1574c4;fill-opacity:1;stroke:none;font-family:BlairMdITC TT;-inkscape-font-specification:BlairMdITC TT Medium"
   id="path3135"
   inkscape:connector-curvature="0"
   sodipodi:nodetypes="cscscscccccsssscccc" /><text
   sodipodi:linespacing="125%"
   id="text3137"
   y="2157.4109"
   x="2634.2588"
   style="font-size:40px;font-style:normal;font-variant:normal;font-weight:500;font-stretch:normal;line-height:125%;letter-spacing:0px;word-spacing:0px;fill:#000000;fill-opacity:1;stroke:none;font-family:BlairMdITC TT;-inkscape-font-specification:BlairMdITC TT Medium"
   xml:space="preserve"><tspan
     y="2157.4109"
     x="2634.2588"
     id="tspan3139"
     sodipodi:role="line" /></text>







<text
   sodipodi:linespacing="125%"
   id="text3141"
   y="2833.7554"
   x="5052.314"
   style="font-size:40px;font-style:normal;font-variant:normal;font-weight:500;font-stretch:normal;line-height:125%;letter-spacing:0px;word-spacing:0px;fill:#000000;fill-opacity:1;stroke:none;font-family:BlairMdITC TT;-inkscape-font-specification:BlairMdITC TT Medium"
   xml:space="preserve"><tspan
     y="2833.7554"
     x="5052.314"
     id="tspan3143"
     sodipodi:role="line" /></text>







</g><g
     transform="translate(25.639064,-1690.5576)"
     inkscape:groupmode="layer"
     id="g3223"
     inkscape:label="Frog bg white"
     style="display:none"><g
       id="g3157"
       transform="translate(0,2)"><path
         inkscape:connector-curvature="0"
         id="path3225"
         d="m 1700.2188,1935.4062 c -17.7095,10.4955 -33.2387,25.791 -53.875,30.2188 -18.1003,6.585 -35.3468,19.9325 -55.6212,16.1314 -31.8187,-3.5423 -63.3648,-8.5767 -95.1288,-12.8814 10.8129,19.0943 15.1196,41.5874 27.9062,59.4375 12.0531,6.0064 22.2531,16.5806 35.748,18.9988 15.2033,-1.1338 32.5093,-7.3686 46.2662,2.2088 14.481,7.4075 28.863,14.9836 43.2983,22.4799 11.0593,-16.0188 27.0021,-27.4979 43.1875,-37.7188 8.1469,-8.0571 10.921,-19.7682 14.25,-30.375 2.2157,-13.9596 -1.7469,-27.9893 -1.402,-42.0216 -0.5558,-9.4425 -1.1334,-18.8837 -1.7542,-28.3221 -0.9584,0.6146 -1.9167,1.2292 -2.875,1.8437 z"
         style="fill:#ffffff;fill-opacity:1;stroke:#000000;stroke-width:0;stroke-linecap:butt;stroke-linejoin:miter;stroke-miterlimit:4;stroke-opacity:1;stroke-dasharray:none" /><path
         inkscape:connector-curvature="0"
         id="path3231"
         d="m 1515.375,1965.1562 c -14.05,2.2372 -28.6706,8.3482 -36.0938,21.125 -9.5062,10.6323 -16.4123,27.2526 -8.1874,40.5938 8.53,17.1926 22.4083,35.6188 43.0937,37.3438 4.2493,0.1383 8.4734,-2.3556 12.6563,-1.3126 -2.3349,19.7274 -3.4158,39.5756 -5.375,59.3438 22.8814,-7.7864 37.2592,-31.6729 36.5,-55.5312 0.4395,-22.1358 -12.8012,-41.0754 -25.7188,-57.8126 -2.2933,-2.9961 -4.542,-6.213 -2.7812,-9.9062 1.57,-6.2404 -1.1109,-12.3203 -4.6876,-17.2188 -2.65,-5.6691 -5.0595,-11.4116 -7.75,-17.125 l -0.9573,0.2891 -0.6989,0.2109 z"
         style="fill:#ffffff;fill-opacity:1;fill-rule:nonzero;stroke:none;display:inline" /><path
         inkscape:connector-curvature="0"
         id="path3233"
         d="m 1706.6875,1937.1875 c -10.4149,0.6889 -20.123,5.1311 -30.4063,6.4375 4.9932,7.7751 10.4347,16.7218 8.5626,26.375 3.0688,2.5611 9.8953,3.9536 7.6408,9.2186 0.065,22.8056 -3.0737,48.8001 11.8592,68.0002 10.4983,14.6649 25.7524,28.0471 44.5937,29.0312 5.8378,1.6692 14.1822,6.4868 18.9063,0.031 4.2364,-5.4935 1.0531,-13.7849 -5.1563,-16.2812 -10.065,-6.4898 -19.9931,-13.6107 -26.5625,-23.8125 -1.45,-2.1614 -5.1942,-6.0426 -0.5,-7.0625 9.561,-5.8018 19.0557,-14.3567 19.5625,-26.3438 2.2476,-14.8321 2.6836,-30.5712 -1.125,-45.1562 -6.4681,-13.2956 -22.8979,-16.4796 -35.9375,-19.3125 -3.784,-0.6477 -7.5706,-1.301 -11.4375,-1.125 z"
         style="fill:#ffffff;fill-opacity:1;fill-rule:nonzero;stroke:none;display:inline" /><path
         inkscape:connector-curvature="0"
         id="path3235"
         d="m 1683.0938,1950.5625 c 1.6044,19.2196 6.9848,41.1968 -4.7813,58.25 -11.9577,9.8806 -27.2114,16.2413 -36.1563,29.375 -13.2187,-7.291 -28.87,-9.6749 -41.125,-18.8437 -16.1955,-6.3933 -34.6968,1.9568 -50.75,-4.9376 -12.4231,-6.6866 -17.2173,-20.9361 -26.2187,-30.7812 -6.0756,-3.6921 -13.6089,2.2304 -14.0937,8.625 -4.1887,9.3175 -3.0786,21.2364 4.7735,28.2479 11.3939,14.7922 25.0136,31.7937 21.6015,51.7833 -0.6086,10.9331 -5.3926,21.9831 -14.75,28.125 -9.6993,9.8621 -9.8773,27.0106 -0.3126,37.0313 8.3669,11.097 26.4802,12.3152 35.7813,1.7813 1.4666,-1.3678 2.9297,-3.7201 3.8437,-4.9063 1.3233,13.2555 13.8322,22.2794 25.9688,24.8125 12.2132,2.9098 24.9727,-5.3112 28,-17.3438 3.12,-10.2491 -0.8993,-22.0008 -9.2812,-28.2187 0.3956,-6.9151 1.0478,-13.802 0.5937,-20.8125 -0.052,-7.9307 -0.7446,-16.0637 -1.9687,-23.75 3.6955,4.6339 8.3524,9.0846 14.375,10.25 -5.0488,9.8042 -0.083,24.9161 12.0624,25.4375 10.1817,1.1707 21.0162,-1.0756 29.875,-6.0937 5.9436,-4.3703 8.8399,-11.784 9.2188,-18.9688 6.4266,13.4869 16.3618,25.1063 24.0938,37.6875 -3.7226,13.6352 5.0538,29.6644 19.3124,32.0625 10.8291,2.6216 22.3974,-3.1118 27.2813,-12.9688 5.409,-8.6587 6.9494,-20.1533 2.2813,-29.4687 11.9168,6.1588 28.3727,0.1487 32.3437,-12.9375 5.6338,-14.5554 -2.495,-34.3512 -18.9375,-36.625 -8.8513,-1.5215 -18.6619,-2.9171 -24.6875,-10.2188 -10.7725,-9.1242 -18.8315,-22.3577 -18.375,-36.875 -1.2727,-13.9899 1.4386,-28.4266 -1.4687,-42.1874 -4.6878,-12.149 -19.1491,-15.0567 -29.0938,-21.5938 0.1979,1.3542 0.3958,2.7083 0.5938,4.0625 z m 27,123.1875 c 7.0519,6.3941 15.847,11.9479 19.3124,21.25 -8.9046,-4.3716 -17.6575,-10.9727 -19.4374,-21.375 l 0.125,0.125 z m -141.9063,15.0312 c 2.8485,9.067 2.1356,19.8062 -3.6563,27.6876 -1.4771,-5.6882 -0.951,-11.2317 0.8438,-16.8438 0.8846,-3.1645 1.8599,-9.2138 2.8125,-10.8438 z"
         style="fill:#ffffff;fill-opacity:1;fill-rule:nonzero;stroke:none;display:inline" /><path
         inkscape:connector-curvature="0"
         id="path3237"
         d="m 1674.875,1843.25 c -14.7172,-0.3669 -27.0129,9.4894 -38.6875,16.375 -29.9151,-10.2867 -62.9029,-3.2622 -90.625,10.0938 -15.7526,-14.345 -42.2652,-16.0842 -58.7771,-1.863 -12.3352,7.8045 -21.3264,21.337 -20.9416,36.3317 -1.2281,18.7039 7.0302,37.1441 19.8437,50.2187 3.3728,12.1042 10.2664,23.3133 18.9687,32.25 9.5151,6.0862 21.4966,2.2622 32.0911,2.873 17.8997,-1.0899 36.1256,-1.5983 53.6277,2.252 20.8163,1.6738 39.445,-9.2035 57.9242,-16.889 17.9648,-6.0399 39.0834,-6.511 54.2946,-18.7047 6.2587,-8.0518 3.3954,-20.4618 11.7812,-27.1875 16.0484,-22.5936 12.33,-59.1517 -12.1678,-74.1603 -8.1859,-5.5399 -16.9177,-12.1443 -27.3322,-11.5897 z"
         style="fill:#ffffff;fill-opacity:1;fill-rule:nonzero;stroke:none;display:inline" /><path
         inkscape:connector-curvature="0"
         id="path3239"
         d="m 1696.5,1940.5312 c -19.6074,5.6246 -39.7202,9.8694 -59.0864,16.211 -15.5345,6.0033 -30.6402,16.4299 -48.1294,13.7124 -14.9405,-1.6785 -30.1218,-4.2573 -45.3447,-2.2659 -17.7503,1.2277 -35.9823,2.4447 -53.252,-2.3137 6.8462,22.9243 31.141,36.6779 54.25,35.9688 22.9511,-1.7776 46.3008,7.3709 68.9063,0.375 19.9045,-4.1213 36.9013,-16.4001 56.5937,-21.0626 14.5347,-6.7355 29.2446,-16.5716 36,-31.5 0.4834,-5.3241 -4.8539,-9.5922 -9.9375,-9.125 z"
         style="fill:#ffffff;fill-opacity:1;fill-rule:nonzero;stroke:none;display:inline" /><path
         inkscape:connector-curvature="0"
         id="path3241"
         d="m 1685.3438,1852.8125 c -22.5387,0.7705 -38.9576,23.0407 -39.4376,44.5 -1.4413,20.5949 12.2032,42.838 33.25,46.5937 10.8113,2.8546 20.1748,-4.4087 28.3438,-10.3437 3.4654,-2.2116 12.7623,-6.6548 3.3442,-5.1833 -15.5035,2.1481 -34.046,-7.8352 -34.6254,-24.723 -1.0362,-11.659 2.5224,-25.8721 14,-31.125 7.5522,-0.249 14.5444,-10.22 8.25,-16.4062 -3.3815,-3.5073 -8.6058,-3.4539 -13.125,-3.3125 z"
         style="fill:#ffffff;fill-opacity:1;fill-rule:nonzero;stroke:none;display:inline" /><path
         inkscape:connector-curvature="0"
         id="path3245"
         d="m 1493.9688,1868.625 c -20.1005,1.6516 -32.5033,23.2547 -30.4376,42.0625 0.854,23.6407 17.2836,48.0238 41.625,51.6875 20.2084,2.0669 36.8185,-17.742 35.9063,-37.0625 1.6423,-26.7717 -17.9548,-57.388 -47.0937,-56.6875 z"
         style="fill:#ffffff;fill-opacity:1;fill-rule:nonzero;stroke:none;display:inline" /><path
         inkscape:connector-curvature="0"
         id="path3247"
         d="m 1689.5312,1852.5625 c -21.8588,1.4041 -36.4664,23.4518 -36.9062,44.0313 -1.8324,20.0411 9.8269,43.1147 30.8125,47.1874 20.4644,3.1838 38.249,-14.6946 41.7187,-33.7812 5.469,-21.2452 -3.1945,-47.8879 -24.875,-55.9375 -3.447,-1.1725 -7.0953,-1.7316 -10.75,-1.5 z"
         style="fill:#ffffff;fill-opacity:1;fill-rule:nonzero;stroke:none;display:inline" /><path
         inkscape:connector-curvature="0"
         id="path3253"
         d="m 1493.8438,1891.2188 c -13.8325,-0.7237 -19.0396,21.2381 -7.0313,27.4062 10.875,7.7103 26.3724,-5.816 21.7187,-17.75 -2.1777,-5.9216 -8.4079,-10.0102 -14.6874,-9.6562 z"
         style="fill:#ffffff;fill-opacity:1;fill-rule:nonzero;stroke:none;display:inline" /><path
         inkscape:connector-curvature="0"
         id="path3255"
         d="m 1692.3438,1871.75 c -13.7411,-0.4303 -18.5371,21.0703 -6.8438,27.4062 10.0007,7.0186 24.0615,-3.5186 22.4688,-14.875 -0.8934,-7.3982 -8.2297,-13.0675 -15.625,-12.5312 z"
         style="fill:#ffffff;fill-opacity:1;fill-rule:nonzero;stroke:none;display:inline" /></g></g><g
     transform="translate(25.639064,-1690.5576)"
     inkscape:groupmode="layer"
     id="g4331"
     inkscape:label="Frog bg white 2"
     style="display:inline"><g
       id="g4646"><path
         inkscape:connector-curvature="0"
         id="path4335"
         d="m 1700.4375,1938.9688 c -16.3661,9.7163 -30.6994,23.9493 -49.875,27.9687 -17.808,5.9562 -34.09,19.2442 -53.875,17.1875 -20.4556,-1.5013 -40.5505,-5.4263 -60.9087,-7.8152 -11.5375,-1.6584 -23.0826,-3.2627 -34.6226,-4.9036 9.3687,17.8995 14.111,38.3769 25.2813,55.125 11.3804,5.9868 21.3073,15.0846 33.6563,18.8438 15.5769,-0.81 33.23,-7.6093 47.4374,1.9062 14.256,7.3393 28.4903,14.7121 42.6876,22.1563 10.9161,-14.9376 25.4841,-26.2992 41.25,-35.625 7.9659,-6.3059 9.9552,-16.8855 13.6874,-25.7187 4.2565,-13.0925 -0.3063,-26.7019 0.025,-40.0815 -0.5629,-10.3097 -1.2021,-20.615 -1.8687,-30.9185 -0.9583,0.625 -1.9167,1.25 -2.875,1.875 z"
         style="fill:#ffffff;fill-opacity:1;stroke:#000000;stroke-width:0;stroke-linecap:butt;stroke-linejoin:miter;stroke-miterlimit:4;stroke-opacity:1;stroke-dasharray:none" /><path
         inkscape:connector-curvature="0"
         id="path4341"
         d="m 1516.2812,1967.5625 c -12.7293,1.9967 -25.8989,7.4927 -32.6562,19.0625 -8.8231,9.9254 -16.4885,24.7941 -9.5312,37.7812 8.256,16.8807 21.0958,35.216 41.0937,37.7813 5.1916,0.4664 11.3922,-3.3701 15.8125,-0.4687 -0.9429,8.2604 -1.9964,16.4834 -2.3669,24.8345 -0.9871,10.8445 -1.9269,21.6932 -2.8831,32.5405 19.0075,-7.6829 31.361,-27.4908 31.9542,-47.6502 2.075,-20.2422 -7.8804,-39.0344 -20.0713,-54.379 -3.1965,-4.6562 -7.1027,-9.1922 -9.2267,-14.3771 2.1872,-5.8647 2.2235,-13.1158 -2.375,-17.8437 -2.8927,-5.842 -5.2782,-11.9255 -8.0937,-17.7813 l -0.9573,0.289 -0.699,0.211 z"
         style="fill:#ffffff;fill-opacity:1;fill-rule:nonzero;stroke:none;display:inline" /><path
         inkscape:connector-curvature="0"
         id="path4343"
         d="m 1709.7188,1939.125 c -9.6249,0.396 -18.6755,4.407 -28.1563,5.9688 4.4535,7.1391 8.7394,15.2704 7.4063,23.9374 2.9241,2.151 9.6566,4.3708 7.5,9.1563 0.2991,21.2341 -2.8866,44.6516 8.5,63.625 10.3263,15.0768 24.5128,30.362 43.875,32.125 5.5741,0.2732 10.5746,4.3526 16.0937,3.5313 6.4318,-2.1323 6.3193,-11.8491 0.3125,-14.5938 -8.921,-6.5972 -19.055,-11.8359 -25.4062,-21.3125 -2.5684,-3.4446 -6.7771,-7.6643 -6.8438,-11.7813 9.1453,-6.0902 20.3642,-12.5808 21.75,-24.6874 2.7334,-13.9892 2.6604,-28.8027 0.5312,-42.875 -1.7557,-11.1064 -13.407,-15.8298 -22.7812,-18.9688 -7.4154,-1.9711 -15.0982,-3.8824 -22.7812,-4.125 z"
         style="fill:#ffffff;fill-opacity:1;fill-rule:nonzero;stroke:none;display:inline" /><path
         inkscape:connector-curvature="0"
         id="path4345"
         d="m 1687.625,1954.1562 c 1.5086,18.6061 5.8661,39.8454 -5.8438,56.0626 -12.1436,10.0229 -28.8926,17.1979 -36.9687,30.625 -13.0812,-7.9622 -29.4225,-9.6939 -41.6875,-19.3126 -15.5488,-6.2142 -32.7775,0.5525 -48.5625,-3.875 -14.1673,-5.5239 -20.373,-20.7607 -29,-31.9687 -4.7845,-3.4723 -11.0808,1.2558 -11.4063,6.5313 -3.6291,8.2386 -4.1657,18.8417 2.9786,25.4691 11.3925,15.3103 26.0597,32.0863 23.3652,52.5933 -0.5393,11.5173 -4.4233,24.0062 -14.5938,30.6563 -9.0796,8.4967 -10.5893,23.8785 -2.3437,33.4375 6.2968,10.0807 21.0989,13.6761 30.6875,6.2188 9.8168,-6.4639 12.3552,-19.9412 9,-30.5313 1.412,-9.4525 4.6791,-19.7642 6.0625,-28.5313 6.0223,11.2703 6.5063,26.2667 -1.6563,36.75 -5.8402,10.8796 -3.163,26.2358 8,32.6563 9.2246,7.6468 24.9274,9.8978 33.5313,0.2187 9.8902,-9.738 8.7976,-28.3277 -3.1875,-35.8437 -1.5711,-4.7966 1.1832,-9.9709 0.125,-15 0.4305,-13.1098 -0.7115,-28.0238 -3.7188,-39.6875 5.4498,7.1839 11.2526,16.7841 21.375,17 -5.414,7.8169 -3.9247,21.9692 6.4688,24.5625 9.5411,2.3251 19.7845,-0.3639 28.7188,-3.6563 8.8911,-4.7616 11.8391,-15.6067 10.5344,-25.0619 -0.3646,-6.7413 1.1526,-0.7971 2.4968,1.9995 6.6062,14.9168 17.1915,27.6607 26.0625,41.1874 -3.3418,11.5604 1.8916,25.4476 13.7187,29.5626 9.6895,4.1156 22.3127,0.7661 27.4688,-8.75 8.3688,-10.7373 9.2607,-29.1051 -3.1875,-37.2188 -8.5919,-6.0143 -20.291,-9.6456 -24.0937,-20.5312 -1.363,-3.2739 -3.5361,-9.9364 -2.7188,-11.5938 6.936,7.7771 16.9844,13.1269 22.1875,22.1562 4.7666,13.6825 22.6432,22.0442 35.4063,13.75 16.1052,-10.2771 11.9323,-40.2276 -7.4688,-44.2812 -8.7091,-2.2855 -18.791,-2.0955 -25.2303,-9.3669 -10.8151,-8.9137 -20.3213,-21.3122 -20.7626,-35.9106 -1.4775,-14.4759 0.347,-29.1553 -1.0383,-43.5663 -2.6848,-11.7893 -16.0954,-15.2401 -25.2813,-20.625 0.1875,1.2917 0.375,2.5834 0.5625,3.875 z"
         style="fill:#ffffff;fill-opacity:1;fill-rule:nonzero;stroke:none;display:inline" /><path
         inkscape:connector-curvature="0"
         id="path4347"
         d="m 1676.875,1845.25 c -14.5354,-0.131 -26.7309,9.2552 -37.9062,16.7812 -30.1734,-11.0427 -63.7986,-3.5959 -91.75,10.0626 -14.424,-13.7762 -39.5719,-16.8364 -55.4376,-3.75 -11.3976,6.8843 -21.2718,18.4017 -21.5937,32.2812 -2.393,19.261 5.3173,39.0828 19.1875,52.2188 2.591,11.4492 9.4214,21.3276 16.4688,30.4687 6.874,7.1038 17.3837,3.9906 26.1561,4.4855 19.554,-0.6941 39.4556,-2.7693 58.6563,1.827 19.4841,2.0112 37.5304,-6.7777 54.5,-15.0312 18.6249,-7.1724 40.453,-7.4394 57.25,-18.875 6.7633,-7.611 3.3399,-20.2352 11.5938,-26.8438 15.8981,-21.4124 13.2825,-56.7914 -10.0625,-71.8125 -8.2132,-5.3979 -16.6598,-12.3411 -27.0625,-11.8125 z"
         style="fill:#ffffff;fill-opacity:1;fill-rule:nonzero;stroke:none;display:inline" /><path
         inkscape:connector-curvature="0"
         id="path4349"
         d="m 1698.25,1942.5625 c -16.5223,4.5985 -33.0209,9.0017 -49.6103,13.237 -13.7056,3.6373 -25.8668,11.5349 -39.3585,15.6067 -18.2096,4.2707 -36.4708,-3.5592 -54.9045,-1.6678 -19.4531,0.8576 -39.2881,3.5809 -58.4392,-1.0822 8.4177,22.2027 33.5867,33.3497 56.3125,30.8438 20.432,-0.2155 41.0059,7.0129 61.3125,1.0938 20.1166,-3.3383 36.8279,-16.2607 56.6875,-20.6563 14.4424,-6.3064 28.5699,-15.9514 36.1562,-30.0313 0.6592,-4.502 -3.97,-7.9119 -8.1562,-7.3437 z"
         style="fill:#ffffff;fill-opacity:1;fill-rule:nonzero;stroke:none;display:inline" /><path
         inkscape:connector-curvature="0"
         id="path4355"
         d="m 1497,1870.5625 c -18.6007,0.7877 -30.6999,20.5254 -29.5,37.8125 -0.021,23.4272 15.627,48.2467 39.8125,52 18.67,1.9685 34.0769,-16.1503 33.6563,-33.9375 2.2107,-25.7188 -16.0979,-55.6456 -43.9688,-55.875 z"
         style="fill:#ffffff;fill-opacity:1;fill-rule:nonzero;stroke:none;display:inline" /><path
         inkscape:connector-curvature="0"
         id="path4357"
         d="m 1691.625,1854.5625 c -20.5681,1.2908 -34.1891,22.0307 -34.9062,41.25 -2.0301,19.3849 8.6545,41.9465 29,46 19.4908,3.0564 36.0854,-14.1814 39.4687,-32.1875 5.1645,-20.2625 -2.7341,-45.9023 -23.5,-53.6562 -3.2179,-1.0876 -6.6302,-1.6246 -10.0625,-1.4063 z"
         style="fill:#ffffff;fill-opacity:1;fill-rule:nonzero;stroke:none;display:inline" /><path
         inkscape:connector-curvature="0"
         id="path4363"
         d="m 1495.8438,1893.2188 c -12.1427,-0.5661 -16.2948,18.8923 -5.625,23.875 9.3164,6.1515 21.7596,-4.9244 18.5937,-15.0313 -1.6467,-5.3944 -7.3872,-9.1847 -12.9687,-8.8437 z"
         style="fill:#ffffff;fill-opacity:1;fill-rule:nonzero;stroke:none;display:inline" /><path
         inkscape:connector-curvature="0"
         id="path4365"
         d="m 1694.3438,1873.75 c -12.3201,-0.2503 -15.8666,19.4346 -4.875,24.1562 9.5025,5.6669 21.5246,-5.7569 17.9374,-15.75 -1.8467,-5.2434 -7.5334,-8.8405 -13.0624,-8.4062 z"
         style="fill:#ffffff;fill-opacity:1;fill-rule:nonzero;stroke:none;display:inline" /></g></g><g
     style="display:inline"
     inkscape:label="Frog"
     id="g3339"
     inkscape:groupmode="layer"
     transform="translate(25.639064,-1690.5576)"><g
       id="g3170"
       transform="translate(2,0)"><path
         sodipodi:nodetypes="cssscccccccccccc"
         transform="translate(-43.2906,-34.370871)"
         inkscape:connector-curvature="0"
         id="path3695"
         d="m 1555.6368,2015.6877 c 0,0 68.9041,9.8328 71.6396,9.8328 2.7355,0 11.2967,2.0774 22.9224,0.7097 11.6258,-1.3678 29.3805,-11.3743 34.1676,-13.4259 4.7871,-2.0516 30.0902,-10.258 32.8257,-12.9935 2.7354,-2.7355 20.2904,-14.084 20.2904,-14.084 l 2.8907,50.0331 -9.271,23.5619 -28.2196,19.6066 -13.3484,14.7937 -23.2661,-12.1172 -23.1925,-11.8512 -11.9547,-1.4899 -30.3157,3.497 -29.0587,-17.7878 z"
         style="fill:#ffffff;fill-opacity:1;stroke:#000000;stroke-width:0;stroke-linecap:butt;stroke-linejoin:miter;stroke-miterlimit:4;stroke-opacity:1;stroke-dasharray:none" /><g
         transform="matrix(1.1288346,0,0,1.1288346,-212.58127,-276.68138)"
         id="g3615"
         style="display:inline"><g
           id="g3430"><path
             d="m 1557.889,2088.2792 c 0.7943,-3.9055 1.2756,-7.8756 1.5738,-11.8483 0.6651,-8.9874 -2.3846,-18.2819 -7.0556,-25.9411 -2.4499,-4.0322 -5.0442,-7.9742 -7.6989,-11.8738 -3.4983,-5.1575 -7.1031,-10.2557 -10.8208,-15.2573 -0.052,-0.067 -0.092,-0.1411 -0.1458,-0.2015 -1.6476,-2.1896 0.8202,-10.0964 1.3379,-11.3006 -1.5313,-2.2054 -3.4716,-6.1249 -5.0292,-9.493 -1.5575,-3.3681 -2.7322,-6.1848 -2.7322,-6.1848 0,0 -2.8432,0.8561 -4.8332,1.1906 -4.1145,0.6915 -8.7219,2.7218 -12.2069,7.4577 -2.9193,3.967 -19.0422,19.1277 -11.1038,31.419 0,0 15.0723,32.1338 34.1145,28.1586 0,0 20.228,-5.5463 16.2563,10.721 l -2.9846,33.089 c 0.2784,-0.2373 0.4424,-0.3715 0.4424,-0.3715 6.1463,-4.3157 9.458,-12.5628 10.8861,-19.564"
             style="fill:#1574c4;fill-opacity:1;fill-rule:nonzero;stroke:none;display:inline"
             id="path3400"
             inkscape:connector-curvature="0"
             sodipodi:nodetypes="cccccccscsscccccc" /><path
             d="m 1686.8073,1973.0156 c 0,0 2.0644,4.4475 2.4495,6.3927 0.4287,2.1654 0.7033,6.2262 0.7033,6.2262 1.6484,1.1479 6.7562,4.8755 6.7046,7.3762 0,0 -2.6544,45.4773 5.2625,55.9135 l 0.039,0.1932 c 6.1369,8.5802 20.1754,25.9695 33.0968,25.9051 0,0 6.5858,0.3611 11.5748,3.2709 -1.5348,-1.0163 -3.5702,-2.3294 -4.2151,-2.737 -1.4343,-0.8899 -3.1962,-1.7515 -4.5195,-2.8247 -4.2229,-3.3948 -8.4767,-6.204 -12.047,-10.3469 -2.0766,-2.412 -13.4193,-16.4612 -12.5138,-19.7448 0.4618,-1.6461 1.7438,-3.4049 3.1523,-4.4105 0.052,-0.043 11.1028,-7.9365 11.1028,-7.9365 7.5403,-4.3598 7.1353,-15.0708 7.9298,-23.4025 0.7971,-8.339 -0.7945,-21.816 -0.7945,-21.816 0.7945,-9.126 -23.9039,-13.7873 -27.7673,-14.6779 -3.6313,-0.8372 -9.6319,-0.2194 -12.7667,0.6738"
             style="fill:#1574c4;fill-opacity:1;fill-rule:nonzero;stroke:none;display:inline"
             id="path3402"
             inkscape:connector-curvature="0"
             sodipodi:nodetypes="csccccccccccccccsc" /><path
             inkscape:connector-curvature="0"
             id="path3404"
             style="fill:#f15029;fill-opacity:1;fill-rule:nonzero;stroke:none;display:inline"
             d="m 1592.086,2058.2161 c 0,0 4.7858,-2.9021 10.3689,0.1341 5.5831,3.0414 5.5831,4.0655 8.6307,7.0992 3.0463,3.0517 8.1119,12.1811 11.6592,12.6918 3.5475,0.5108 7.6095,0.5108 10.6555,-1.5219 1.0481,-0.7146 4.7888,-2.0844 8.042,-4.0423 0.1393,-0.085 0.2786,-0.178 0.4153,-0.2658 -0.1238,0.1806 -0.245,0.356 -0.3663,0.5366 -1.638,2.412 -3.3612,4.9865 -4.6322,6.8877 -1.1725,1.7567 -1.9619,2.9459 -1.9619,2.9459 -3.7569,5.7578 -5.3849,9.7691 -5.6238,12.5629 -0.8454,9.5988 14.8388,4.4808 17.6636,4.3879 3.6605,-0.098 6.9753,-2.4558 9.5653,-4.9219 2.6131,-2.4765 1.4523,-12.8544 2.1694,-17.1005 0.2374,-1.4523 0.3328,-2.5022 0.4644,-3.4902 0.245,-1.8857 0.6191,-3.5367 2.4455,-7.303 0.5804,-1.1944 1.2924,-2.1514 2.0431,-2.9227 2.835,-2.9382 6.3304,-3.2014 6.3304,-3.2014 -4.1403,18.3336 29.0648,57.5028 29.0648,57.5028 -6.8928,18.7489 7.6951,21.7413 7.6951,21.7413 11.2627,4.4524 15.8261,-7.5171 15.8261,-7.5171 12.0702,-19.7988 -11.967,-26.1498 -11.967,-26.1498 l -6.0079,-5.2599 c -10.2412,-8.2729 -10.8661,-22.0848 -11.4872,-24.8549 -0.4488,-2.0018 -0.7282,-4.4497 -0.9173,-7.9201 -0.268,-4.9192 7.516,-3.4793 7.516,-3.4793 2.5848,5.7552 26.155,25.5488 26.155,25.5488 6.3253,21.6793 22.5126,12.4158 22.5126,12.4158 6.6761,-3.8514 4.7904,-14.3325 3.9107,-17.9337 -0.1935,-0.7791 -0.3405,-1.2485 -0.3405,-1.2485 -0.1832,-0.4799 -0.4102,-0.9339 -0.6759,-1.3569 -1.0086,-1.6536 -2.5074,-2.9073 -4.1893,-3.8876 -4.989,-2.9098 -11.5749,-3.2709 -11.5749,-3.2709 -12.9214,0.064 -26.9598,-17.3249 -33.0968,-25.9051 l -0.039,-0.1932 c -7.9169,-10.4362 -5.2624,-55.9135 -5.2624,-55.9135 0.052,-2.5007 -4.9736,-6.2283 -6.622,-7.3762 -0.1857,-0.128 -0.3457,-0.2407 -0.4308,-0.3031 -0.052,-0.038 -0.088,-0.057 -0.088,-0.057 0.2399,1.5411 0.1496,14.9493 0.3483,21.9639 -0.7791,8.6836 -3.5574,17.1966 -9.1088,24.0378 -1.9553,2.4141 -4.8136,3.7452 -7.3958,5.3683 -2.2211,1.3889 -4.3828,2.8647 -6.511,4.3895 -1.7077,1.2117 -3.8101,2.1468 -5.3476,3.5945 -1.3698,1.3086 -2.8273,2.4976 -4.339,3.7147 -2.0688,1.6754 -4.8136,3.5096 -6.2298,5.8336 -1.7258,2.8427 -2.6931,7.4397 -4.7388,11.1389 -0.6062,-2.7654 -4.1945,-5.9539 -13.2142,-9.4983 0,0 -13.1871,-5.0816 -17.7565,-6.5946 -4.5582,-1.5266 -8.6327,-5.5818 -12.1769,-7.1048 -2.5007,-1.0778 -5.7993,-0.9826 -8.4558,-1.1433 -1.9293,-0.1226 -3.8094,-0.2423 -5.6979,-0.5123 -2.0782,-0.2903 -4.3318,0.1651 -6.4246,0.162 -2.6173,0 -5.2377,0.054 -7.8514,0.1965 -3.0564,0.1819 -6.1484,0.7502 -9.1456,-0.089 -8.4099,-2.3206 -15.5372,-7.5828 -21.1696,-14.1078 -0.057,-0.073 -0.1194,-0.1359 -0.1736,-0.1996 -2.3173,-3.4573 -4.9658,-7.442 -6.8884,-10.4063 -1.32,-2.039 -2.3011,-3.6004 -2.5859,-4.1703 0,0 -0.031,0.072 -0.077,0.1736 -0.5177,1.2042 -3.749,8.946 -2.1014,11.1356 0.054,0.06 0.093,0.1341 0.1458,0.2015 3.7177,5.0016 7.3225,10.0998 10.8208,15.2573 2.6547,3.8996 5.249,7.8416 7.6989,11.8738 4.671,7.6592 7.7206,16.9537 7.0556,25.9411 -0.2982,3.9727 -0.7796,7.9428 -1.5738,11.8483 -1.4281,7.0012 -3.9144,15.2483 -10.0606,19.564 0,0 -0.1641,0.1342 -0.4424,0.3715 -1.9652,1.7026 -9.7973,8.9849 -8.0217,16.1099 0,0 4.6955,14.4511 14.0224,13.5508 0,0 18.559,-1.8186 11.1598,-23.1523 0,0 7.7366,-29.7974 6.5002,-35.9885 0,0 4.0635,-7.4768 6.7043,-3.3082 1.8523,2.9239 4.4653,6.9145 5.2531,8.8002 1.0927,2.6155 8.1223,14.0826 5.077,26.8954 l -1.8473,7.7724 c 0,0 -15.9208,19.1074 5.3997,28.2497 0,0 10.657,7.1017 17.2506,-3.0492 0,0 10.1638,-10.8938 -6.34,-22.1746 0,0 1.6853,-19.6826 -0.3766,-37.624 -0.2244,-1.9657 -0.4914,-3.9159 -0.8206,-5.8145 -1.474,-8.6883 -4.0534,-16.3601 -8.4148,-20.2657"
             sodipodi:nodetypes="cccscccccccccccccccccccsscccccccccccccccccccccccccccccccccccccccccccccccsssccccccc" /><path
             d="m 1526.5068,1998.3921 c 1.0104,0.043 11.7524,1.255 19.6482,0.6426 8.69,-0.665 26.4367,-2.9005 48.8055,1.415 4.6398,0.8974 9.2826,0.2406 13.8158,-0.6519 3.1807,-0.6204 6.1664,-0.6828 9.2877,-1.7214 1.844,-0.6173 3.6786,-1.3084 5.4637,-2.0784 20.3575,-10.8712 38.1829,-14.0846 46.7911,-16.0565 8.4638,-1.9505 18.7411,-6.4953 19.0894,-6.6132 l 0.023,-0.016 -0.01,0.016 0.023,-0.016 0.9707,-1.9844 c 0.6884,-2.4509 1.2581,-4.3045 1.6966,-5.8605 0.8952,-3.1936 1.4162,-6.5134 2.007,-9.7771 19.2021,-18.8999 14.8437,-49.7033 -2.0354,-59.6016 -0.8538,-0.4244 -1.7799,-0.8812 -2.7705,-1.3365 -0.7068,-0.5206 -1.1995,-0.8761 -1.2227,-0.8877 -5.2058,-5.054 -10.7339,-6.8882 -16.1718,-6.9147 -15.8003,-0.043 -30.6462,15.9961 -31.3066,16.1859 -9.6772,-4.479 -19.7819,-6.1741 -29.5203,-6.1741 -28.98,0 -54.3474,14.9774 -55.0847,14.9545 -9.9216,-9.3404 -18.8162,-12.1672 -26.0172,-12.1672 -11.0288,-0.026 -18.0335,6.5791 -18.6379,7.1818 -1.0874,0.7106 -4.6398,3.0808 -7.8282,5.6667 -11.6003,10.0369 -11.6737,41.5555 8.7635,58.3994 1.4281,4.6903 3.3252,12.6353 5.6453,15.021 1.3248,1.3622 2.6367,2.7618 3.6376,4.4061 0.8172,1.361 1.7826,3.774 3.1158,5.4462"
             style="fill:#7eca2b;fill-opacity:1;fill-rule:nonzero;stroke:none;display:inline"
             id="path3406"
             inkscape:connector-curvature="0"
             sodipodi:nodetypes="cccccccccccccccccccscccccscc" /><path
             d="m 1556.4351,2009.3664 c 5.4309,-0.3356 16.3874,0.086 16.3874,0.086 10.2559,1.7763 21.0584,3.5738 31.5075,2.6924 1.0644,-0.093 2.1388,-0.2196 3.1869,-0.4177 1.7921,-0.3573 3.4297,-1.1162 5.2901,-1.0948 0.6485,0 1.1776,0.041 1.8375,-0.067 1.2973,-0.2131 2.5845,-0.4981 3.8522,-0.8423 4.2285,-1.1126 8.333,-2.6763 12.3616,-4.3577 5.2705,-2.2028 10.4163,-4.6726 15.5034,-7.2537 0,0 10.4837,-3.7145 15.8442,-5.0378 5.3347,-1.3087 22.2752,-12.0047 27.2023,-19.7255 l 0.039,-0.036 -0.023,0.016 0.01,-0.016 -0.023,0.016 c -0.3483,0.1179 -10.6256,3.8373 -19.0894,5.7877 -8.6082,1.9719 -26.4336,5.1854 -46.7911,16.0565 -1.7851,0.77 -3.6197,1.4611 -5.4637,2.0784 -3.1213,1.0386 -6.107,1.101 -9.2877,1.7214 -4.5332,0.8926 -9.176,1.5493 -13.8158,0.6519 -22.3688,-4.3155 -40.1155,-2.08 -48.8055,-1.415 -7.8958,0.6124 -17.6961,0.2381 -19.4255,0.1687 -0.03,0 -0.1951,-0.01 -0.2454,-0.015 6.0464,7.4289 20.0441,11.4752 29.951,11.0034"
             style="fill:#cac9ca;fill-opacity:1;fill-rule:nonzero;stroke:none;display:inline"
             id="path3408"
             inkscape:connector-curvature="0"
             sodipodi:nodetypes="cccccccccccccccccccccscc" /><path
             d="m 1682.8714,1958.5294 c -12.0086,-5.6219 -19.6014,-15.9775 -18.3735,-33.5033 1.0808,-15.8339 8.2421,-26.0886 19.0545,-29.7717 -14.3351,-0.7762 -26.8799,12.5095 -28.0794,29.8958 -1.2176,17.5258 9.5601,32.544 24.0139,33.54 1.411,0.1013 2.804,0.019 4.1687,-0.1479 0.057,0 0.1032,-0.01 0.1548,-0.013 -0.307,0 -0.6217,0.023 -0.939,0"
             style="fill:#231f20;fill-opacity:1;fill-rule:nonzero;stroke:none;display:inline"
             id="path3410"
             inkscape:connector-curvature="0"
             sodipodi:nodetypes="cccccccc" /><path
             d="m 1538.9395,1935.6048 c 6.163,17.5341 4.3404,25.5465 -8.1138,36.0771 -1.5179,1.2864 -4.3108,2.9435 -6.2646,2.9664 3.426,0.583 6.8819,0.3638 10.1885,-0.7911 13.4018,-4.7118 19.1833,-22.9759 12.9235,-40.8146 -6.2479,-17.8302 -22.1751,-28.4561 -35.5753,-23.7492 -0.071,0.023 -0.1326,0.054 -0.2098,0.08 12.6686,2.0572 21.5192,10.4286 27.0515,26.2312"
             style="fill:#231f20;fill-opacity:1;fill-rule:nonzero;stroke:none;display:inline"
             id="path3412"
             inkscape:connector-curvature="0"
             sodipodi:nodetypes="cccccccc" /><path
             d="m 1530.3294,1973.667 c 12.7024,-4.4511 17.9989,-22.2651 11.8359,-39.7992 -5.5323,-15.8026 -18.4772,-25.911 -30.2773,-24.4942 -1.2805,0.1589 -2.5662,0.4063 -3.8142,0.8469 -1.6525,0.5665 -3.1627,1.3822 -4.5479,2.3764 -0.6258,0.4565 -1.2416,0.9348 -1.8084,1.4642 -0.3013,0.2716 -0.5747,0.5716 -0.8546,0.868 -0.9681,1.0053 -1.8475,2.1256 -2.6274,3.3375 -5.072,7.8907 -6.1692,19.8793 -2.0077,31.7397 3.3182,9.4534 9.2829,16.8495 16.0616,20.99 3.9386,2.4138 8.1396,3.706 12.2717,3.652 1.9538,-0.023 3.8913,-0.3211 5.7683,-0.9813"
             style="fill:#f15029;fill-opacity:1;fill-rule:nonzero;stroke:none;display:inline"
             id="path3414"
             inkscape:connector-curvature="0"
             sodipodi:nodetypes="cccccccccccc" /><path
             d="m 1683.5524,1895.2544 c -11.5568,1.5739 -21.1995,14.0619 -22.2804,29.8958 -1.2279,17.5258 8.4741,32.472 21.5994,33.3792 0.1986,0.014 0.3972,0.01 0.5933,0 0.1161,0 0.2322,-0.01 0.3457,0 0.3585,0.01 0.7119,0.013 1.0679,0 0.2915,-0.01 0.5753,-0.033 0.8694,-0.062 0.1393,-0.01 0.2734,-0.034 0.405,-0.046 2.7937,-0.3129 5.4843,-1.2514 7.9685,-2.7349 7.9788,-4.7628 13.9249,-14.9988 14.7633,-27.2312 1.0654,-15.3084 -6.1757,-28.6493 -16.7987,-32.3704 -1.5348,-0.5405 -3.1445,-0.8812 -4.8058,-0.9927 -1.2589,-0.088 -2.5023,0 -3.7276,0.1589"
             style="fill:#f15029;fill-opacity:1;fill-rule:nonzero;stroke:none;display:inline"
             id="path3416"
             inkscape:connector-curvature="0"
             sodipodi:nodetypes="ccccccccccccc" /><path
             d="m 1508.0885,1933.4945 c 0,-2.1259 1.5756,-3.8503 3.6228,-4.1204 -1.0189,-2.8562 -1.8083,-4.671 -1.8083,-4.671 -19.096,21.9099 1.9342,37.2542 1.9342,37.2542 5.8945,-4.8232 4.5776,-15.9224 2.2833,-24.7615 -0.5652,0.282 -1.1892,0.4636 -1.8687,0.4636 -2.3062,0 -4.1633,-1.8687 -4.1633,-4.1649"
             style="fill:#231f20;fill-opacity:1;fill-rule:nonzero;stroke:none;display:inline"
             id="path3418"
             inkscape:connector-curvature="0" /><path
             d="m 1691.6989,1908.7153 c -0.5804,1.3068 -1.0757,2.5664 -1.5297,3.7982 1.3723,0.6792 2.3242,2.0846 2.3242,3.7206 0,2.2946 -1.8625,4.1716 -4.1661,4.1716 -0.1419,0 -0.276,-0.039 -0.4102,-0.051 -3.5805,18.1612 6.849,25.6751 6.849,25.6751 19.061,-25.59 -3.0672,-37.3147 -3.0672,-37.3147"
             style="fill:#231f20;fill-opacity:1;fill-rule:nonzero;stroke:none;display:inline"
             id="path3420"
             inkscape:connector-curvature="0" /><path
             d="m 1516.4148,1933.4945 c 0,-2.3059 -1.8638,-4.1712 -4.163,-4.1712 -0.1868,0 -0.3638,0.028 -0.5405,0.051 -2.0472,0.2701 -3.6228,1.9945 -3.6228,4.1204 0,2.2962 1.8571,4.1649 4.1633,4.1649 0.6795,0 1.3035,-0.1816 1.8687,-0.4636 1.3543,-0.6877 2.2943,-2.0764 2.2943,-3.7013"
             style="fill:#ffffff;fill-opacity:1;fill-rule:nonzero;stroke:none;display:inline"
             id="path3422"
             inkscape:connector-curvature="0" /><path
             d="m 1692.4934,1916.2341 c 0,-1.636 -0.9519,-3.0414 -2.3242,-3.7206 -0.5572,-0.277 -1.1789,-0.4408 -1.8419,-0.4408 -2.2881,0 -4.1584,1.8607 -4.1584,4.1614 0,2.1556 1.6433,3.9077 3.7482,4.1208 0.1342,0.012 0.2683,0.051 0.4102,0.051 2.3036,0 4.1661,-1.877 4.1661,-4.1716"
             style="fill:#ffffff;fill-opacity:1;fill-rule:nonzero;stroke:none;display:inline"
             id="path3424"
             inkscape:connector-curvature="0" /><path
             d="m 1513.457,1912.7111 0,0 c -3e-4,0 -5e-4,0 -8e-4,0 -0.4496,0 -0.875,0.04 -1.2733,0.1066 -3.5212,0.5915 -8.2641,4.6841 -8.2641,4.6841 1.0842,-0.1811 2.1522,-0.2637 3.1987,-0.2637 10.842,0 19.3582,8.8701 19.3582,8.8701 -0.019,-0.047 -0.038,-0.093 -0.058,-0.139 -0.01,-0.013 -0.011,-0.027 -0.016,-0.039 -4.4788,-10.7819 -9.418,-13.2093 -12.9243,-13.2189 -0.01,0 -0.014,0 -0.021,0"
             style="fill:#ffffff;fill-opacity:1;fill-rule:nonzero;stroke:none;display:inline"
             id="path3426"
             inkscape:connector-curvature="0" /><path
             d="m 1687.2593,1898.1279 c -0.01,0 -0.01,0 -0.01,0 -3.4902,0 -8.5696,2.3728 -11.9231,14.2146 0,0.01 -0.01,0.015 -0.01,0.024 -0.013,0.051 -0.028,0.1027 -0.044,0.154 0,0.01 0,0.012 -0.01,0.018 -0.018,0.069 -0.036,0.1388 -0.057,0.2084 l 0,3e-4 c -0.026,0.098 -0.054,0.195 -0.08,0.2938 -0.01,0.035 -0.018,0.071 -0.028,0.1068 0,0 8.438,-11.4492 20.5546,-11.4492 0.2347,0 0.4669,0 0.7042,0.013 0,0 -5.2315,-3.4511 -8.8043,-3.577 -0.01,-2e-4 -0.015,0 -0.023,0 -0.093,0 -0.1832,0 -0.2761,0"
             style="fill:#ffffff;fill-opacity:1;fill-rule:nonzero;stroke:none;display:inline"
             id="path3428"
             inkscape:connector-curvature="0" /></g></g></g></g></svg>