
<svg width="534px" height="566px" viewBox="-117 -135 534 566" version="1.1" xmlns="http://www.w3.org/2000/svg" xmlns:xlink="http://www.w3.org/1999/xlink">
    <!-- Generator: Sketch 42 (36781) - http://www.bohemiancoding.com/sketch -->
    <desc>Created with Sketch.</desc>
    <defs></defs>
    <g id="Group" stroke="none" stroke-width="1" fill="none" fill-rule="evenodd" transform="translate(-117.000000, -135.000000)">
        <path d="M333,68.5028243 L333,487.850379 C321.083951,495.491894 309.042535,502.593398 297.00294,509.153499 C286.143208,515.07072 276.088808,520.10092 265.93195,524.217201 C256.922228,520.010865 246.827902,514.908219 235.924752,508.905325 C224.246705,502.4758 212.566778,495.53329 200.99999,488.078883 L201,68.5057529 C221.823662,71.416843 243.851599,73.002871 266.997165,73.0019531 C290.144685,73.0019531 312.174559,71.4149375 333,68.5028243 Z" id="Combined-Shape" fill="#007FC1"></path>
        <path d="M451.036874,440.312537 C438.864813,452.867975 425.875353,464.857984 412.178772,476.289695 C381.214252,502.133914 348.082112,524.027045 314.945243,542.082571 C303.337398,548.407421 292.547159,553.80576 282.844605,558.289194 C279.431013,559.866574 276.391359,561.219095 273.759427,562.348122 C272.152213,563.037572 271.020669,563.50605 270.398592,563.754878 L266.47907,565.322671 L262.565101,563.741066 C261.94033,563.488601 260.804059,563.013337 259.190224,562.313922 C256.547576,561.168632 253.495586,559.796612 250.068173,558.196468 C240.326539,553.648427 229.492933,548.172077 217.838549,541.75558 C184.569972,523.439064 151.30662,501.227684 120.220722,475.006401 C107.12608,463.960932 94.6734982,452.39968 82.9592199,440.316444 C77.8001419,434.994873 72.8850557,429.566249 68.2089776,424.037051 C38.6562314,389.092596 19.6295002,351.59587 9.04717244,314.056855 C5.32848026,300.865424 2.93194835,288.585781 1.59496279,277.519411 C1.12180935,273.603071 0.815687695,270.104012 0.644043889,267.059625 C0.537220552,265.164937 0.5,263.80059 0.5,263.003906 L0.5,256.476253 L6.35381299,253.587806 C6.56937528,253.481441 7.11104513,253.197389 7.93115258,252.738297 C9.37715866,251.928829 11.009169,250.948586 12.7793926,249.800982 C17.8732159,246.498748 22.975603,242.558869 27.7079689,238.025328 C37.6993597,228.453713 44.6029666,217.633065 47.2480827,205.730043 C50.6293515,190.501329 47.8033867,173.617963 40.88143,156.938242 C39.156569,152.781874 37.3096938,148.979725 35.4731958,145.628667 C34.8407146,144.474579 34.2596388,143.466585 33.746723,142.616395 C33.4601109,142.141318 29.7516761,136.448371 29.7516761,136.448371 L104.773258,0.961633794 L113.851959,5.69216688 C114.845254,6.18624685 115.45973,6.48117049 116.183354,6.81834959 C118.305441,7.80715384 120.849046,8.91995393 123.803975,10.1266858 C132.349779,13.6166151 142.420458,17.122716 153.934805,20.4052421 C187.013241,29.8352897 224.910399,35.5036222 266.996094,35.5019531 C309.080918,35.5019531 346.977573,29.8331244 380.055695,20.4032797 C391.571679,17.1203261 401.643761,13.6137679 410.190732,10.1233819 C413.146068,8.91649069 415.690022,7.80354291 417.812398,6.81460641 C418.536124,6.47738127 419.150686,6.18241688 419.654809,5.93347686 C419.931295,5.79694606 429.222836,0.957727544 429.222836,0.957727544 L504.244418,136.444465 L500.789078,141.738765 C499.736455,143.462679 499.155379,144.470672 498.522898,145.624761 C496.6864,148.975818 494.839525,152.777968 493.114664,156.934336 C486.192707,173.614057 483.366742,190.497423 486.74582,205.716274 C489.393127,217.629159 496.296734,228.449807 506.288125,238.021422 C511.020491,242.554963 516.122878,246.494841 521.216701,249.797076 C522.986925,250.94468 524.618935,251.924923 526.064941,252.734391 C526.885049,253.193483 527.426718,253.477535 527.642281,253.5839 L533.496094,256.472347 L533.496094,263 C533.496094,263.796683 533.458873,265.161031 533.35205,267.055719 C533.180406,270.100106 532.874284,273.599164 532.401131,277.515505 C531.064145,288.581875 528.667613,300.861518 524.948921,314.052948 C514.366594,351.591964 495.339862,389.08869 465.787116,424.033144 C461.111038,429.562343 456.195952,434.990967 451.036874,440.312537 Z M274.035748,539.226035 C283.330483,534.93105 293.708651,529.738869 304.897553,523.64229 C336.894247,506.20802 368.895668,485.062049 398.722473,460.167412 C411.866741,449.196683 424.315123,437.706119 435.95922,425.695275 C440.786677,420.71577 445.382642,415.63961 449.752466,410.47254 C477.272735,377.931375 494.935799,343.122082 504.736691,308.355078 C508.152125,296.239402 510.341818,285.019588 511.552735,274.996702 C511.817663,272.803864 512.021929,270.775733 512.173427,268.921922 C511.401902,268.447431 510.607688,267.946207 509.793234,267.418211 C503.650369,263.435901 497.516067,258.699216 491.760856,253.185803 C479.001005,240.962042 469.893831,226.687543 466.248083,210.281676 C461.780604,190.16084 465.289776,169.195737 473.718538,148.885092 C475.690002,144.134489 477.799438,139.772296 479.922289,135.870711 L420.511676,28.5769177 C419.744206,28.9003571 418.950306,29.2297874 418.13013,29.5647285 C408.884514,33.3404252 398.085822,37.0999498 385.812957,40.5986735 C350.92294,50.5450495 311.100478,56.5019531 266.99651,56.5019531 C222.891344,56.5037022 183.068077,50.5472789 148.177478,40.6006176 C135.906259,37.1023209 125.108978,33.3432545 115.864538,29.5680165 C115.044871,29.2332812 114.251449,28.9040505 113.484429,28.5808038 L54.0738048,135.874618 C56.1966553,139.776202 58.3060913,144.138395 60.2775553,148.888998 C68.7063176,169.199643 72.21549,190.164746 67.7510254,210.272012 C64.1022628,226.691449 54.9950883,240.965948 42.2352374,253.18971 C36.4800269,258.703122 30.345725,263.439807 24.2028594,267.422117 C23.3884057,267.950113 22.594192,268.451337 21.8226671,268.925828 C21.9741651,270.779639 22.178431,272.80777 22.4433592,275.000608 C23.654276,285.023494 25.8439685,296.243308 29.2594032,308.358984 C39.060295,343.125988 56.723359,377.935282 84.2436274,410.476446 C88.6134517,415.643516 93.2094163,420.719676 98.0368739,425.699181 C109.250071,437.265555 121.189563,448.350443 133.760767,458.954386 C163.709741,484.216662 195.840894,505.672023 227.966823,523.359437 C239.200516,529.544316 249.620125,534.811392 258.951888,539.168079 C261.761608,540.479842 264.291581,541.62376 266.519675,542.600487 C268.733692,541.639599 271.246326,540.514993 274.035748,539.226035 Z" id="Schild" fill="#007FC1" fill-rule="nonzero"></path>
        <path d="M376.612,277.315906 C377.380004,277.315906 378.126663,277.251907 378.852,277.123906 C379.577337,276.995906 380.23333,276.782574 380.82,276.483906 C381.40667,276.185238 381.907998,275.801242 382.324,275.331906 C382.740002,274.862571 383.011999,274.286576 383.14,273.603906 L386.116,273.603906 L386.116,296.003906 L382.116,296.003906 L382.116,280.195906 L376.612,280.195906 L376.612,277.315906 Z M397.86,290.339906 C397.945334,291.257244 398.270664,291.99857 398.836,292.563906 C399.401336,293.129242 400.163995,293.411906 401.124,293.411906 C402.105338,293.411906 402.88933,293.150576 403.476,292.627906 C404.06267,292.105237 404.515998,291.454577 404.836,290.675906 C405.156002,289.897236 405.374666,289.065244 405.492,288.179906 C405.609334,287.294568 405.7,286.478577 405.764,285.731906 L405.7,285.667906 C405.209331,286.542577 404.537338,287.209237 403.684,287.667906 C402.830662,288.126575 401.892005,288.355906 400.868,288.355906 C399.801328,288.355906 398.836004,288.174575 397.972,287.811906 C397.107996,287.449238 396.36667,286.942576 395.748,286.291906 C395.12933,285.641236 394.649335,284.851911 394.308,283.923906 C393.966665,282.995902 393.796,281.955912 393.796,280.803906 C393.796,279.715901 393.966665,278.707911 394.308,277.779906 C394.649335,276.851902 395.150663,276.041243 395.812,275.347906 C396.473337,274.654569 397.283995,274.115908 398.244,273.731906 C399.204005,273.347904 400.291994,273.155906 401.508,273.155906 C403.086675,273.155906 404.387995,273.459903 405.412,274.067906 C406.436005,274.675909 407.24133,275.507901 407.828,276.563906 C408.41467,277.619912 408.825332,278.862566 409.06,280.291906 C409.294668,281.721247 409.412,283.246565 409.412,284.867906 C409.412,286.211913 409.268001,287.566566 408.98,288.931906 C408.691999,290.297246 408.217337,291.539901 407.556,292.659906 C406.894663,293.779912 406.025339,294.691903 404.948,295.395906 C403.870661,296.09991 402.542675,296.451906 400.964,296.451906 C400.067996,296.451906 399.225337,296.302574 398.436,296.003906 C397.646663,295.705238 396.948003,295.289242 396.34,294.755906 C395.731997,294.22257 395.236002,293.582577 394.852,292.835906 C394.467998,292.089236 394.254667,291.257244 394.212,290.339906 L397.86,290.339906 Z M401.348,276.195906 C400.686663,276.195906 400.110669,276.318572 399.62,276.563906 C399.129331,276.809241 398.724002,277.145237 398.404,277.571906 C398.083998,277.998575 397.844001,278.489237 397.684,279.043906 C397.523999,279.598576 397.444,280.17457 397.444,280.771906 C397.444,281.390576 397.523999,281.98257 397.684,282.547906 C397.844001,283.113242 398.083998,283.609237 398.404,284.035906 C398.724002,284.462575 399.129331,284.809238 399.62,285.075906 C400.110669,285.342574 400.686663,285.475906 401.348,285.475906 C402.03067,285.475906 402.627997,285.347908 403.14,285.091906 C403.652003,284.835905 404.073332,284.489242 404.404,284.051906 C404.734668,283.614571 404.985332,283.113242 405.156,282.547906 C405.326668,281.98257 405.412,281.390576 405.412,280.771906 C405.412,280.17457 405.326668,279.598576 405.156,279.043906 C404.985332,278.489237 404.734668,278.003908 404.404,277.587906 C404.073332,277.171904 403.652003,276.835908 403.14,276.579906 C402.627997,276.323905 402.03067,276.195906 401.348,276.195906 Z M414.436,273.603906 L426.02,273.603906 L426.02,276.867906 L417.156,276.867906 L416.004,282.563906 L416.068,282.627906 C416.558669,282.073237 417.182663,281.651908 417.94,281.363906 C418.697337,281.075905 419.44933,280.931906 420.196,280.931906 C421.305339,280.931906 422.297329,281.118571 423.172,281.491906 C424.046671,281.865241 424.782664,282.387903 425.38,283.059906 C425.977336,283.73191 426.430665,284.526568 426.74,285.443906 C427.049335,286.361244 427.204,287.353234 427.204,288.419906 C427.204,289.315911 427.060001,290.238568 426.772,291.187906 C426.483999,292.137244 426.025336,293.001236 425.396,293.779906 C424.766664,294.558577 423.961338,295.19857 422.98,295.699906 C421.998662,296.201242 420.82534,296.451906 419.46,296.451906 C418.371995,296.451906 417.364005,296.307908 416.436,296.019906 C415.507995,295.731905 414.692004,295.299909 413.988,294.723906 C413.283996,294.147903 412.724002,293.438577 412.308,292.595906 C411.891998,291.753235 411.662667,290.766579 411.62,289.635906 L415.268,289.635906 C415.374667,290.851912 415.790663,291.785236 416.516,292.435906 C417.241337,293.086576 418.201327,293.411906 419.396,293.411906 C420.164004,293.411906 420.814664,293.283908 421.348,293.027906 C421.881336,292.771905 422.313332,292.419908 422.644,291.971906 C422.974668,291.523904 423.209333,291.001243 423.348,290.403906 C423.486667,289.80657 423.556,289.166576 423.556,288.483906 C423.556,287.865236 423.470668,287.273242 423.3,286.707906 C423.129332,286.14257 422.873335,285.646575 422.532,285.219906 C422.190665,284.793237 421.748003,284.451908 421.204,284.195906 C420.659997,283.939905 420.025337,283.811906 419.3,283.811906 C418.531996,283.811906 417.812003,283.955905 417.14,284.243906 C416.467997,284.531908 415.982668,285.070569 415.684,285.859906 L412.036,285.859906 L414.436,273.603906 Z M431.876,287.811906 L438.66,287.811906 L438.66,277.955906 L438.596,277.955906 L431.876,287.811906 Z M444.996,290.691906 L442.116,290.691906 L442.116,296.003906 L438.66,296.003906 L438.66,290.691906 L429.06,290.691906 L429.06,287.075906 L438.66,273.603906 L442.116,273.603906 L442.116,287.811906 L444.996,287.811906 L444.996,290.691906 Z" id="1954" fill="#007FC1"></path>
        <path d="M64,274.583906 L67.99,274.583906 L76.24,296.003906 L72.22,296.003906 L70.21,290.333906 L61.66,290.333906 L59.65,296.003906 L55.78,296.003906 L64,274.583906 Z M62.68,287.483906 L69.22,287.483906 L66.01,278.273906 L65.92,278.273906 L62.68,287.483906 Z M78.28,274.583906 L88.51,274.583906 C90.8700118,274.583906 92.6399941,275.093901 93.82,276.113906 C95.0000059,277.133911 95.59,278.553897 95.59,280.373906 C95.59,281.393911 95.4400015,282.238903 95.14,282.908906 C94.8399985,283.57891 94.490002,284.118904 94.09,284.528906 C93.689998,284.938908 93.2950019,285.233905 92.905,285.413906 C92.5149981,285.593907 92.2300009,285.713906 92.05,285.773906 L92.05,285.833906 C92.3700016,285.873906 92.7149982,285.973905 93.085,286.133906 C93.4550019,286.293907 93.7999984,286.548905 94.12,286.898906 C94.4400016,287.248908 94.704999,287.703903 94.915,288.263906 C95.1250011,288.823909 95.23,289.523902 95.23,290.363906 C95.23,291.623913 95.3249991,292.768901 95.515,293.798906 C95.705001,294.828911 95.999998,295.563904 96.4,296.003906 L92.38,296.003906 C92.0999986,295.543904 91.9350003,295.033909 91.885,294.473906 C91.8349998,293.913903 91.81,293.373909 91.81,292.853906 C91.81,291.873901 91.7500006,291.02891 91.63,290.318906 C91.5099994,289.608903 91.2900016,289.018909 90.97,288.548906 C90.6499984,288.078904 90.2150028,287.733907 89.665,287.513906 C89.1149973,287.293905 88.4100043,287.183906 87.55,287.183906 L82.03,287.183906 L82.03,296.003906 L78.28,296.003906 L78.28,274.583906 Z M82.03,284.333906 L88.18,284.333906 C89.380006,284.333906 90.2899969,284.048909 90.91,283.478906 C91.5300031,282.908903 91.84,282.053912 91.84,280.913906 C91.84,280.233903 91.740001,279.678908 91.54,279.248906 C91.339999,278.818904 91.0650018,278.483907 90.715,278.243906 C90.3649983,278.003905 89.9650022,277.843907 89.515,277.763906 C89.0649978,277.683906 88.6000024,277.643906 88.12,277.643906 L82.03,277.643906 L82.03,284.333906 Z M99.25,274.583906 L103.21,274.583906 L112.99,290.363906 L113.05,290.363906 L113.05,274.583906 L116.62,274.583906 L116.62,296.003906 L112.66,296.003906 L102.91,280.253906 L102.82,280.253906 L102.82,296.003906 L99.25,296.003906 L99.25,274.583906 Z M120.97,274.583906 L124.72,274.583906 L124.72,283.103906 L134.47,283.103906 L134.47,274.583906 L138.22,274.583906 L138.22,296.003906 L134.47,296.003906 L134.47,286.343906 L124.72,286.343906 L124.72,296.003906 L120.97,296.003906 L120.97,274.583906 Z M142.72,274.583906 L158.14,274.583906 L158.14,277.823906 L146.47,277.823906 L146.47,283.433906 L157.27,283.433906 L157.27,286.493906 L146.47,286.493906 L146.47,292.763906 L158.35,292.763906 L158.35,296.003906 L142.72,296.003906 L142.72,274.583906 Z M161.56,274.583906 L166.84,274.583906 L172.75,291.353906 L172.81,291.353906 L178.57,274.583906 L183.79,274.583906 L183.79,296.003906 L180.22,296.003906 L180.22,279.473906 L180.16,279.473906 L174.22,296.003906 L171.13,296.003906 L165.19,279.473906 L165.13,279.473906 L165.13,296.003906 L161.56,296.003906 L161.56,274.583906 Z" id="ARNHEM" fill="#007FC1"></path>
        <path d="M297.775,95.9039062 L237.925,95.9039062 L237.925,203.003906 L299.275,203.003906 L299.275,185.303906 L259.525,185.303906 L259.525,156.503906 L295.525,156.503906 L295.525,138.803906 L259.525,138.803906 L259.525,113.603906 L297.775,113.603906 L297.775,95.9039062 Z M252.475,303.553906 L230.875,303.553906 L230.875,307.903906 C230.875,317.803956 233.499974,325.40388 238.75,330.703906 C244.000026,336.003933 252.724939,338.653906 264.925,338.653906 C276.625059,338.653906 285.749967,336.078932 292.3,330.928906 C298.850033,325.778881 302.125,317.553963 302.125,306.253906 C302.125,302.95389 301.825003,299.95392 301.225,297.253906 C300.624997,294.553893 299.550008,292.078917 298,289.828906 C296.449992,287.578895 294.375013,285.478916 291.775,283.528906 C289.174987,281.578896 285.82502,279.703915 281.725,277.903906 L265.075,270.703906 C260.474977,268.803897 257.475007,266.728918 256.075,264.478906 C254.674993,262.228895 253.975,259.453923 253.975,256.153906 C253.975,254.553898 254.149998,253.003914 254.5,251.503906 C254.850002,250.003899 255.499995,248.678912 256.45,247.528906 C257.400005,246.378901 258.674992,245.45391 260.275,244.753906 C261.875008,244.053903 263.874988,243.703906 266.275,243.703906 C270.475021,243.703906 273.474991,245.078892 275.275,247.828906 C277.075009,250.57892 277.975,254.503881 277.975,259.603906 L298.675,259.603906 L298.675,256.603906 C298.675,251.503881 297.850008,247.128925 296.2,243.478906 C294.549992,239.828888 292.250015,236.828918 289.3,234.478906 C286.349985,232.128895 282.85002,230.428911 278.8,229.378906 C274.74998,228.328901 270.325024,227.803906 265.525,227.803906 C255.224949,227.803906 247.12503,230.40388 241.225,235.603906 C235.324971,240.803932 232.375,248.703853 232.375,259.303906 C232.375,263.703928 232.924994,267.57889 234.025,270.928906 C235.125006,274.278923 236.849988,277.228894 239.2,279.778906 C241.550012,282.328919 244.474983,284.553897 247.975,286.453906 C251.475018,288.353916 255.624976,290.103898 260.425,291.703906 C264.025018,292.903912 267.049988,294.078901 269.5,295.228906 C271.950012,296.378912 273.924993,297.653899 275.425,299.053906 C276.925007,300.453913 277.999997,302.028897 278.65,303.778906 C279.300003,305.528915 279.625,307.603894 279.625,310.003906 C279.625,314.503929 278.300013,317.828895 275.65,319.978906 C272.999987,322.128917 270.025016,323.203906 266.725,323.203906 C263.924986,323.203906 261.600009,322.80391 259.75,322.003906 C257.899991,321.203902 256.425005,320.103913 255.325,318.703906 C254.224995,317.303899 253.475002,315.578916 253.075,313.528906 C252.674998,311.478896 252.475,309.203919 252.475,306.703906 L252.475,303.553906 Z M277,430.653906 L266.65,382.503906 L266.35,382.503906 L256,430.653906 L277,430.653906 Z M279.85,363.903906 L308.2,471.003906 L285.7,471.003906 L280.75,448.353906 L252.25,448.353906 L247.3,471.003906 L224.8,471.003906 L253.15,363.903906 L279.85,363.903906 Z" id="E-S-A" fill="#FFFFFF"></path>
    </g>
</svg>
