
<svg width="566px" height="606px" viewBox="-133 -157 566 606" version="1.1" xmlns="http://www.w3.org/2000/svg" xmlns:xlink="http://www.w3.org/1999/xlink">
    <!-- Generator: Sketch 42 (36781) - http://www.bohemiancoding.com/sketch -->
    <desc>Created with Sketch.</desc>
    <defs></defs>
    <rect id="Rectangle" stroke="none" fill="#00A8FF" fill-rule="evenodd" x="84" y="-79" width="132" height="479.996094"></rect>
    <path d="M417.943432,103.78717 L418.010307,103.820169 C417.995043,103.812656 417.972799,103.801661 417.943432,103.78717 Z M397.606625,15.7568245 C397.650247,15.6899871 397.669132,15.6606614 397.664734,15.6677902 L397.606625,15.7568245 Z M432.996094,111.214606 L432.996094,128 C432.996094,129.10175 432.950432,130.775522 432.825888,132.984521 C432.634758,136.374516 432.298021,140.22352 431.782014,144.494565 C430.345974,156.380814 427.786926,169.49318 423.82996,183.529847 C412.633647,223.246871 392.535463,262.855152 361.38577,299.687905 C356.469063,305.501633 351.303239,311.207193 345.883602,316.797529 C333.296712,329.780862 319.882119,342.163292 305.751578,353.957203 C273.893139,380.547523 239.872577,403.027707 205.839856,421.571363 C193.902842,428.07557 182.788834,433.63589 172.765849,438.267391 C169.212295,439.909445 166.033902,441.3237 163.264229,442.511813 C161.530287,443.255626 160.273171,443.776093 159.526485,444.074765 L149.447714,448.106233 L139.383223,444.039249 C138.633026,443.7361 137.370378,443.207976 135.629019,442.453294 C132.847809,441.247954 129.656273,439.813201 126.088111,438.147346 C116.024436,433.448954 104.865547,427.808175 92.88062,421.209692 C58.7142481,402.398881 24.5613109,379.593487 -7.4178843,352.618699 C-20.9238001,341.226316 -33.7795232,329.290779 -45.8875082,316.801435 C-51.3071452,311.211099 -56.4729697,305.505539 -61.3896758,299.691812 C-92.5393689,262.859058 -112.637553,223.250778 -123.833866,183.533753 C-127.790832,169.497086 -130.349881,156.384721 -131.78592,144.498471 C-132.301927,140.227426 -132.638664,136.378423 -132.829794,132.988427 C-132.954338,130.779428 -133,129.105656 -133,128.003906 L-133,111.218513 L-118.014214,103.824075 C-115.985332,102.700718 -114.658102,101.903537 -113.196188,100.955804 C-108.926613,98.1879149 -104.635016,94.8740992 -100.706313,91.1104567 C-92.8901415,83.6226716 -87.7179089,75.5157634 -85.8590037,67.1506901 C-83.3311859,55.7657878 -85.6203447,42.0895001 -91.3583827,28.262648 C-92.8445389,24.6814827 -94.4337889,21.4097047 -95.9963544,18.5584915 C-96.5167845,17.6088627 -96.9840257,16.7983381 -97.3813269,16.1397868 C-97.6670615,15.6742322 -106.49569,2.14681557 -106.49569,2.14681557 L-18.8687655,-156.104794 L4.47646701,-143.940566 C5.03987298,-143.663089 5.54211576,-143.422033 6.15226664,-143.137728 C8.03592197,-142.260023 10.3360326,-141.253749 13.0421046,-140.148645 C21.0389794,-136.882887 30.5387583,-133.575545 41.4584181,-130.462553 C73.1130134,-121.438416 109.4968,-115.996441 149.996094,-115.998047 C190.494121,-115.998047 226.877641,-121.440531 258.532132,-130.46453 C269.453424,-133.57795 278.954598,-136.885749 286.952633,-140.151962 C289.659108,-141.257224 291.959562,-142.263643 293.843502,-143.141479 C295.518194,-143.944502 295.575452,-143.973561 295.519627,-143.944473 L318.864859,-156.108701 L406.491784,2.14290932 L397.664734,15.6677902 C396.980119,16.7944319 396.512878,17.6049565 395.992448,18.5545852 C394.429883,21.4057984 392.840633,24.6775764 391.354476,28.2587418 C385.616438,42.0855938 383.32728,55.7618815 385.853554,67.1398356 C387.714003,75.5118571 392.886235,83.6187654 400.702407,91.1065504 C404.631109,94.870193 408.922706,98.1840086 413.192282,100.951898 C414.654196,101.899631 415.981425,102.696812 417.124652,103.336785 C418.04307,103.835997 432.996094,111.214606 432.996094,111.214606 Z M180.00294,374.153499 C211.103781,357.207358 242.216781,336.64844 271.149667,312.499903 C283.859975,301.891375 295.883225,290.793233 307.112492,279.210284 C311.67939,274.499544 316.024617,269.70032 320.153813,264.817779 C346.077135,234.164914 362.668746,201.467174 371.855652,168.87818 C374.579994,159.214037 376.458791,150.199392 377.639996,142.023851 C372.768875,138.488023 367.962097,134.522282 363.346574,130.100675 C348.411504,115.793084 337.572955,98.804845 333.140996,78.8610286 C327.820066,54.8963812 331.866045,30.7241996 341.478726,7.56068634 C342.384107,5.37900485 343.315799,3.27004862 344.264996,1.23791555 L296.057582,-85.8232288 C289.103475,-83.3185819 281.523171,-80.8673509 273.336521,-78.5335171 C237.022872,-68.1812951 195.687275,-61.9980469 149.997165,-61.9980469 C104.304943,-61.9962348 62.9683045,-68.1790153 26.6538648,-78.5315873 C18.4693995,-80.8648262 10.891017,-83.315417 3.93856136,-85.8194125 L-44.268901,1.24182552 C-43.3197056,3.27395487 -42.3880132,5.3829111 -41.482632,7.56459259 C-31.869951,30.7281059 -27.8239727,54.9002875 -33.1412409,78.8484507 C-37.5768617,98.8087513 -48.4154105,115.79699 -63.3504802,130.104581 C-67.9660029,134.526188 -72.7727817,138.49193 -77.6439024,142.027757 C-76.4626969,150.203299 -74.5839005,159.217944 -71.8595584,168.882086 C-62.6726519,201.471081 -46.0810408,234.16882 -20.1577191,264.821685 C-16.0285228,269.704226 -11.6832967,274.50345 -7.11639804,279.21419 C3.7030925,290.374456 15.2394432,301.085059 27.3993729,311.342088 C56.4550498,335.850858 87.6966185,356.712205 118.924752,373.905325 C129.827902,379.908219 139.922228,385.010865 148.93195,389.217201 C159.088808,385.10092 169.143208,380.07072 180.00294,374.153499 Z" id="Schild-blauw" stroke="none" fill="#FFFFFF" fill-rule="nonzero"></path>
    <path d="M334.036874,305.312537 C321.864813,317.867975 308.875353,329.857984 295.178772,341.289695 C264.214252,367.133914 231.082112,389.027045 197.945243,407.082571 C186.337398,413.407421 175.547159,418.80576 165.844605,423.289194 C162.431013,424.866574 159.391359,426.219095 156.759427,427.348122 C155.152213,428.037572 154.020669,428.50605 153.398592,428.754878 L149.47907,430.322671 L145.565101,428.741066 C144.94033,428.488601 143.804059,428.013337 142.190224,427.313922 C139.547576,426.168632 136.495586,424.796612 133.068173,423.196468 C123.326539,418.648427 112.492933,413.172077 100.838549,406.75558 C67.5699724,388.439064 34.30662,366.227684 3.22072206,340.006401 C-9.87392017,328.960932 -22.3265018,317.39968 -34.0407801,305.316444 C-39.1998581,299.994873 -44.1149443,294.566249 -48.7910224,289.037051 C-78.3437686,254.092596 -97.3704998,216.59587 -107.952828,179.056855 C-111.67152,165.865424 -114.068052,153.585781 -115.405037,142.519411 C-115.878191,138.603071 -116.184312,135.104012 -116.355956,132.059625 C-116.462779,130.164937 -116.5,128.80059 -116.5,128.003906 L-116.5,121.476253 L-110.646187,118.587806 C-110.430625,118.481441 -109.888955,118.197389 -109.068847,117.738297 C-107.622841,116.928829 -105.990831,115.948586 -104.220607,114.800982 C-99.1267841,111.498748 -94.024397,107.558869 -89.2920311,103.025328 C-79.3006403,93.4537134 -72.3970334,82.6330652 -69.7519173,70.7300427 C-66.3706485,55.5013293 -69.1966133,38.617963 -76.11857,21.9382422 C-77.843431,17.7818741 -79.6903062,13.9797247 -81.5268042,10.628667 C-82.1592854,9.47457856 -82.7403612,8.46658479 -83.253277,7.61639507 C-83.5398891,7.14131788 -87.2483239,1.44837098 -87.2483239,1.44837098 L-12.2267421,-134.038366 L-3.14804061,-129.307833 C-2.15474636,-128.813753 -1.54027038,-128.51883 -0.816645709,-128.18165 C1.30544055,-127.192846 3.84904638,-126.080046 6.8039754,-124.873314 C15.3497789,-121.383385 25.4204585,-117.877284 36.9348046,-114.594758 C70.0132412,-105.16471 107.910399,-99.4963778 149.996094,-99.4980469 C192.080918,-99.4980469 229.977573,-105.166876 263.055695,-114.59672 C274.571679,-117.879674 284.643761,-121.386232 293.190732,-124.876618 C296.146068,-126.083509 298.690022,-127.196457 300.812398,-128.185394 C301.536124,-128.522619 302.150686,-128.817583 302.654809,-129.066523 C302.931295,-129.203054 312.222836,-134.042272 312.222836,-134.042272 L387.244418,1.44446473 L383.789078,6.73876509 C382.736455,8.46267854 382.155379,9.47067231 381.522898,10.6247608 C379.6864,13.9758185 377.839525,17.7779678 376.114664,21.9343359 C369.192707,38.6140567 366.366742,55.4974231 369.74582,70.7162744 C372.393127,82.629159 379.296734,93.4498071 389.288125,103.021422 C394.020491,107.554963 399.122878,111.494841 404.216701,114.797076 C405.986925,115.94468 407.618935,116.924923 409.064941,117.734391 C409.885049,118.193483 410.426718,118.477535 410.642281,118.5839 L416.496094,121.472347 L416.496094,128 C416.496094,128.796683 416.458873,130.161031 416.35205,132.055719 C416.180406,135.100106 415.874284,138.599164 415.401131,142.515505 C414.064145,153.581875 411.667613,165.861518 407.948921,179.052948 C397.366594,216.591964 378.339862,254.08869 348.787116,289.033144 C344.111038,294.562343 339.195952,299.990967 334.036874,305.312537 Z M157.035748,404.226035 C166.330483,399.93105 176.708651,394.738869 187.897553,388.64229 C219.894247,371.20802 251.895668,350.062049 281.722473,325.167412 C294.866741,314.196683 307.315123,302.706119 318.95922,290.695275 C323.786677,285.71577 328.382642,280.63961 332.752466,275.47254 C360.272735,242.931375 377.935799,208.122082 387.736691,173.355078 C391.152125,161.239402 393.341818,150.019588 394.552735,139.996702 C394.817663,137.803864 395.021929,135.775733 395.173427,133.921922 C394.401902,133.447431 393.607688,132.946207 392.793234,132.418211 C386.650369,128.435901 380.516067,123.699216 374.760856,118.185803 C362.001005,105.962042 352.893831,91.6875432 349.248083,75.2816761 C344.780604,55.1608397 348.289776,34.1957367 356.718538,13.8850922 C358.690002,9.13448914 360.799438,4.77229609 362.922289,0.870711484 L303.511676,-106.423082 C302.744206,-106.099643 301.950306,-105.770213 301.13013,-105.435272 C291.884514,-101.659575 281.085822,-97.9000502 268.812957,-94.4013265 C233.92294,-84.4549505 194.100478,-78.4980469 149.99651,-78.4980469 C105.891344,-78.4962978 66.0680767,-84.4527211 31.1774783,-94.3993824 C18.9062587,-97.8976791 8.10897826,-101.656746 -1.13546176,-105.431984 C-1.95512933,-105.766719 -2.74855051,-106.095949 -3.51557091,-106.419196 L-62.9261952,0.874617752 C-60.8033447,4.77620235 -58.6939087,9.1383954 -56.7224447,13.8889984 C-48.2936824,34.199643 -44.78451,55.1647459 -49.2489746,75.2720119 C-52.8977372,91.6914494 -62.0049117,105.965948 -74.7647626,118.18971 C-80.5199731,123.703122 -86.654275,128.439807 -92.7971406,132.422117 C-93.6115943,132.950113 -94.405808,133.451337 -95.1773329,133.925828 C-95.0258349,135.779639 -94.821569,137.80777 -94.5566408,140.000608 C-93.345724,150.023494 -91.1560315,161.243308 -87.7405968,173.358984 C-77.939705,208.125988 -60.276641,242.935282 -32.7563726,275.476446 C-28.3865483,280.643516 -23.7905837,285.719676 -18.9631261,290.699181 C-7.74992897,302.265555 4.18956333,313.350443 16.7607665,323.954386 C46.7097407,349.216662 78.8408942,370.672023 110.966823,388.359437 C122.200516,394.544316 132.620125,399.811392 141.951888,404.168079 C144.761608,405.479842 147.291581,406.62376 149.519675,407.600487 C151.733692,406.639599 154.246326,405.514993 157.035748,404.226035 Z" id="Schild-wit" stroke="none" fill="#00A8FF" fill-rule="nonzero"></path>
    <path d="M259.612,142.315906 C260.380004,142.315906 261.126663,142.251907 261.852,142.123906 C262.577337,141.995906 263.23333,141.782574 263.82,141.483906 C264.40667,141.185238 264.907998,140.801242 265.324,140.331906 C265.740002,139.862571 266.011999,139.286576 266.14,138.603906 L269.116,138.603906 L269.116,161.003906 L265.116,161.003906 L265.116,145.195906 L259.612,145.195906 L259.612,142.315906 Z M280.86,155.339906 C280.945334,156.257244 281.270664,156.99857 281.836,157.563906 C282.401336,158.129242 283.163995,158.411906 284.124,158.411906 C285.105338,158.411906 285.88933,158.150576 286.476,157.627906 C287.06267,157.105237 287.515998,156.454577 287.836,155.675906 C288.156002,154.897236 288.374666,154.065244 288.492,153.179906 C288.609334,152.294568 288.7,151.478577 288.764,150.731906 L288.7,150.667906 C288.209331,151.542577 287.537338,152.209237 286.684,152.667906 C285.830662,153.126575 284.892005,153.355906 283.868,153.355906 C282.801328,153.355906 281.836004,153.174575 280.972,152.811906 C280.107996,152.449238 279.36667,151.942576 278.748,151.291906 C278.12933,150.641236 277.649335,149.851911 277.308,148.923906 C276.966665,147.995902 276.796,146.955912 276.796,145.803906 C276.796,144.715901 276.966665,143.707911 277.308,142.779906 C277.649335,141.851902 278.150663,141.041243 278.812,140.347906 C279.473337,139.654569 280.283995,139.115908 281.244,138.731906 C282.204005,138.347904 283.291994,138.155906 284.508,138.155906 C286.086675,138.155906 287.387995,138.459903 288.412,139.067906 C289.436005,139.675909 290.24133,140.507901 290.828,141.563906 C291.41467,142.619912 291.825332,143.862566 292.06,145.291906 C292.294668,146.721247 292.412,148.246565 292.412,149.867906 C292.412,151.211913 292.268001,152.566566 291.98,153.931906 C291.691999,155.297246 291.217337,156.539901 290.556,157.659906 C289.894663,158.779912 289.025339,159.691903 287.948,160.395906 C286.870661,161.09991 285.542675,161.451906 283.964,161.451906 C283.067996,161.451906 282.225337,161.302574 281.436,161.003906 C280.646663,160.705238 279.948003,160.289242 279.34,159.755906 C278.731997,159.22257 278.236002,158.582577 277.852,157.835906 C277.467998,157.089236 277.254667,156.257244 277.212,155.339906 L280.86,155.339906 Z M284.348,141.195906 C283.686663,141.195906 283.110669,141.318572 282.62,141.563906 C282.129331,141.809241 281.724002,142.145237 281.404,142.571906 C281.083998,142.998575 280.844001,143.489237 280.684,144.043906 C280.523999,144.598576 280.444,145.17457 280.444,145.771906 C280.444,146.390576 280.523999,146.98257 280.684,147.547906 C280.844001,148.113242 281.083998,148.609237 281.404,149.035906 C281.724002,149.462575 282.129331,149.809238 282.62,150.075906 C283.110669,150.342574 283.686663,150.475906 284.348,150.475906 C285.03067,150.475906 285.627997,150.347908 286.14,150.091906 C286.652003,149.835905 287.073332,149.489242 287.404,149.051906 C287.734668,148.614571 287.985332,148.113242 288.156,147.547906 C288.326668,146.98257 288.412,146.390576 288.412,145.771906 C288.412,145.17457 288.326668,144.598576 288.156,144.043906 C287.985332,143.489237 287.734668,143.003908 287.404,142.587906 C287.073332,142.171904 286.652003,141.835908 286.14,141.579906 C285.627997,141.323905 285.03067,141.195906 284.348,141.195906 Z M297.436,138.603906 L309.02,138.603906 L309.02,141.867906 L300.156,141.867906 L299.004,147.563906 L299.068,147.627906 C299.558669,147.073237 300.182663,146.651908 300.94,146.363906 C301.697337,146.075905 302.44933,145.931906 303.196,145.931906 C304.305339,145.931906 305.297329,146.118571 306.172,146.491906 C307.046671,146.865241 307.782664,147.387903 308.38,148.059906 C308.977336,148.73191 309.430665,149.526568 309.74,150.443906 C310.049335,151.361244 310.204,152.353234 310.204,153.419906 C310.204,154.315911 310.060001,155.238568 309.772,156.187906 C309.483999,157.137244 309.025336,158.001236 308.396,158.779906 C307.766664,159.558577 306.961338,160.19857 305.98,160.699906 C304.998662,161.201242 303.82534,161.451906 302.46,161.451906 C301.371995,161.451906 300.364005,161.307908 299.436,161.019906 C298.507995,160.731905 297.692004,160.299909 296.988,159.723906 C296.283996,159.147903 295.724002,158.438577 295.308,157.595906 C294.891998,156.753235 294.662667,155.766579 294.62,154.635906 L298.268,154.635906 C298.374667,155.851912 298.790663,156.785236 299.516,157.435906 C300.241337,158.086576 301.201327,158.411906 302.396,158.411906 C303.164004,158.411906 303.814664,158.283908 304.348,158.027906 C304.881336,157.771905 305.313332,157.419908 305.644,156.971906 C305.974668,156.523904 306.209333,156.001243 306.348,155.403906 C306.486667,154.80657 306.556,154.166576 306.556,153.483906 C306.556,152.865236 306.470668,152.273242 306.3,151.707906 C306.129332,151.14257 305.873335,150.646575 305.532,150.219906 C305.190665,149.793237 304.748003,149.451908 304.204,149.195906 C303.659997,148.939905 303.025337,148.811906 302.3,148.811906 C301.531996,148.811906 300.812003,148.955905 300.14,149.243906 C299.467997,149.531908 298.982668,150.070569 298.684,150.859906 L295.036,150.859906 L297.436,138.603906 Z M314.876,152.811906 L321.66,152.811906 L321.66,142.955906 L321.596,142.955906 L314.876,152.811906 Z M327.996,155.691906 L325.116,155.691906 L325.116,161.003906 L321.66,161.003906 L321.66,155.691906 L312.06,155.691906 L312.06,152.075906 L321.66,138.603906 L325.116,138.603906 L325.116,152.811906 L327.996,152.811906 L327.996,155.691906 Z" id="1954" stroke="none" fill="#00A8FF" fill-rule="evenodd"></path>
    <path d="M-53,139.583906 L-49.01,139.583906 L-40.76,161.003906 L-44.78,161.003906 L-46.79,155.333906 L-55.34,155.333906 L-57.35,161.003906 L-61.22,161.003906 L-53,139.583906 Z M-54.32,152.483906 L-47.78,152.483906 L-50.99,143.273906 L-51.08,143.273906 L-54.32,152.483906 Z M-38.72,139.583906 L-28.49,139.583906 C-26.1299882,139.583906 -24.3600059,140.093901 -23.18,141.113906 C-21.9999941,142.133911 -21.41,143.553897 -21.41,145.373906 C-21.41,146.393911 -21.5599985,147.238903 -21.86,147.908906 C-22.1600015,148.57891 -22.509998,149.118904 -22.91,149.528906 C-23.310002,149.938908 -23.704998,150.233905 -24.095,150.413906 C-24.4850019,150.593907 -24.7699991,150.713906 -24.95,150.773906 L-24.95,150.833906 C-24.6299984,150.873906 -24.2850018,150.973905 -23.915,151.133906 C-23.5449981,151.293907 -23.2000016,151.548904 -22.88,151.898906 C-22.5599984,152.248908 -22.295001,152.703903 -22.085,153.263906 C-21.8749989,153.823909 -21.77,154.523902 -21.77,155.363906 C-21.77,156.623913 -21.6750009,157.768901 -21.485,158.798906 C-21.294999,159.828911 -21.000002,160.563904 -20.6,161.003906 L-24.62,161.003906 C-24.9000014,160.543904 -25.0649997,160.033909 -25.115,159.473906 C-25.1650002,158.913903 -25.19,158.373909 -25.19,157.853906 C-25.19,156.873901 -25.2499994,156.02891 -25.37,155.318906 C-25.4900006,154.608903 -25.7099984,154.018909 -26.03,153.548906 C-26.3500016,153.078904 -26.7849972,152.733907 -27.335,152.513906 C-27.8850027,152.293905 -28.5899957,152.183906 -29.45,152.183906 L-34.97,152.183906 L-34.97,161.003906 L-38.72,161.003906 L-38.72,139.583906 Z M-34.97,149.333906 L-28.82,149.333906 C-27.619994,149.333906 -26.7100031,149.048909 -26.09,148.478906 C-25.4699969,147.908903 -25.16,147.053912 -25.16,145.913906 C-25.16,145.233903 -25.259999,144.678908 -25.46,144.248906 C-25.660001,143.818904 -25.9349982,143.483907 -26.285,143.243906 C-26.6350017,143.003905 -27.0349977,142.843907 -27.485,142.763906 C-27.9350022,142.683906 -28.3999976,142.643906 -28.88,142.643906 L-34.97,142.643906 L-34.97,149.333906 Z M-17.75,139.583906 L-13.79,139.583906 L-4.01,155.363906 L-3.95,155.363906 L-3.95,139.583906 L-0.38,139.583906 L-0.38,161.003906 L-4.34,161.003906 L-14.09,145.253906 L-14.18,145.253906 L-14.18,161.003906 L-17.75,161.003906 L-17.75,139.583906 Z M3.97,139.583906 L7.72,139.583906 L7.72,148.103906 L17.47,148.103906 L17.47,139.583906 L21.22,139.583906 L21.22,161.003906 L17.47,161.003906 L17.47,151.343906 L7.72,151.343906 L7.72,161.003906 L3.97,161.003906 L3.97,139.583906 Z M25.72,139.583906 L41.14,139.583906 L41.14,142.823906 L29.47,142.823906 L29.47,148.433906 L40.27,148.433906 L40.27,151.493906 L29.47,151.493906 L29.47,157.763906 L41.35,157.763906 L41.35,161.003906 L25.72,161.003906 L25.72,139.583906 Z M44.56,139.583906 L49.84,139.583906 L55.75,156.353906 L55.81,156.353906 L61.57,139.583906 L66.79,139.583906 L66.79,161.003906 L63.22,161.003906 L63.22,144.473906 L63.16,144.473906 L57.22,161.003906 L54.13,161.003906 L48.19,144.473906 L48.13,144.473906 L48.13,161.003906 L44.56,161.003906 L44.56,139.583906 Z" id="ARNHEM" stroke="none" fill="#00A8FF" fill-rule="evenodd"></path>
    <path d="M180.775,-39.0960938 L120.925,-39.0960938 L120.925,68.0039062 L182.275,68.0039062 L182.275,50.3039062 L142.525,50.3039062 L142.525,21.5039063 L178.525,21.5039063 L178.525,3.80390625 L142.525,3.80390625 L142.525,-21.3960937 L180.775,-21.3960937 L180.775,-39.0960938 Z M135.475,168.553906 L113.875,168.553906 L113.875,172.903906 C113.875,182.803956 116.499974,190.40388 121.75,195.703906 C127.000026,201.003933 135.724939,203.653906 147.925,203.653906 C159.625058,203.653906 168.749967,201.078932 175.3,195.928906 C181.850033,190.77888 185.125,182.553963 185.125,171.253906 C185.125,167.95389 184.825003,164.95392 184.225,162.253906 C183.624997,159.553893 182.550008,157.078917 181,154.828906 C179.449992,152.578895 177.375013,150.478916 174.775,148.528906 C172.174987,146.578896 168.82502,144.703915 164.725,142.903906 L148.075,135.703906 C143.474977,133.803897 140.475007,131.728918 139.075,129.478906 C137.674993,127.228895 136.975,124.453923 136.975,121.153906 C136.975,119.553898 137.149998,118.003914 137.5,116.503906 C137.850002,115.003899 138.499995,113.678912 139.45,112.528906 C140.400005,111.378901 141.674992,110.45391 143.275,109.753906 C144.875008,109.053903 146.874988,108.703906 149.275,108.703906 C153.475021,108.703906 156.474991,110.078892 158.275,112.828906 C160.075009,115.57892 160.975,119.503881 160.975,124.603906 L181.675,124.603906 L181.675,121.603906 C181.675,116.503881 180.850008,112.128925 179.2,108.478906 C177.549992,104.828888 175.250015,101.828918 172.3,99.4789063 C169.349985,97.1288945 165.85002,95.4289115 161.8,94.3789062 C157.74998,93.328901 153.325024,92.8039063 148.525,92.8039063 C138.224949,92.8039063 130.12503,95.4038803 124.225,100.603906 C118.324971,105.803932 115.375,113.703853 115.375,124.303906 C115.375,128.703928 115.924994,132.57889 117.025,135.928906 C118.125006,139.278923 119.849988,142.228894 122.2,144.778906 C124.550012,147.328919 127.474983,149.553897 130.975,151.453906 C134.475018,153.353916 138.624976,155.103898 143.425,156.703906 C147.025018,157.903912 150.049988,159.078901 152.5,160.228906 C154.950012,161.378912 156.924993,162.653899 158.425,164.053906 C159.925007,165.453913 160.999997,167.028897 161.65,168.778906 C162.300003,170.528915 162.625,172.603894 162.625,175.003906 C162.625,179.503929 161.300013,182.828895 158.65,184.978906 C155.999987,187.128917 153.025016,188.203906 149.725,188.203906 C146.924986,188.203906 144.600009,187.80391 142.75,187.003906 C140.899991,186.203902 139.425005,185.103913 138.325,183.703906 C137.224995,182.303899 136.475002,180.578916 136.075,178.528906 C135.674998,176.478896 135.475,174.203919 135.475,171.703906 L135.475,168.553906 Z M160,295.653906 L149.65,247.503906 L149.35,247.503906 L139,295.653906 L160,295.653906 Z M162.85,228.903906 L191.2,336.003906 L168.7,336.003906 L163.75,313.353906 L135.25,313.353906 L130.3,336.003906 L107.8,336.003906 L136.15,228.903906 L162.85,228.903906 Z" id="E-S-A-Helvetica-Neue" stroke="none" fill="#FFFFFF" fill-rule="evenodd"></path>
</svg>
