<?xml version="1.0" encoding="UTF-8"?>
<svg width="131px" height="138px" viewBox="0 0 1314 1384" version="1.1" xmlns="http://www.w3.org/2000/svg" xmlns:xlink="http://www.w3.org/1999/xlink">
    <!-- Generator: Sketch 42 (36781) - http://www.bohemiancoding.com/sketch -->
    <title>Logo_ESA-01</title>
    <desc>Created with Sketch.</desc>
    <defs></defs>
    <g id="Page-1" stroke="none" stroke-width="1" fill="none" fill-rule="evenodd">
        <g id="Logo_ESA-01" transform="translate(657.000000, 692.000000) scale(-1, 1) rotate(180.000000) translate(-657.000000, -692.000000) translate(1.000000, 0.000000)" fill-rule="nonzero">
            <path d="M733.78125,48.275 C1078.99,207.845 1297.25,483.33125 1311.5625,749.12875 C1311.6375,750.6425 1311.6125,752.18375 1311.675,753.72 C1238.6375,784.49625 1187.475,855.185 1187.475,937.5425 C1187.475,982.3725 1203.81375,1023.6175 1229.4,1057.02625 C1198.33125,1119.3475 1184.2525,1145.1075 1158.67125,1189.5875 C1097.59875,1295.49875 1060.62125,1383.2325 1060.62125,1383.2325 C908.81375,1301.45 709.35,1295.31875 656.22875,1298.035 C602.64625,1295.31875 403.1975,1301.45 251.4,1383.2325 C251.4,1383.2325 214.4075,1295.49875 153.375,1189.5875 C127.7475,1145.1075 112.69,1116.3475 83.1775,1057.15 C108.2325,1022.6175 124.56125,982.3725 124.56125,937.5425 C124.56125,855.185 73.42125,784.49625 0.35375,753.72 C0.41375,752.18375 0.36625,750.6425 0.47375,749.12875 C14.71875,484.00375 231.92375,209.265 575.63375,49.5 C601.62625,37.4 631.02,15.1625 656.27625,0.1625 C683.8775,16.075 708.62875,36.6125 733.78125,48.275 Z" id="path26" fill="#2964B4"></path>
            <path d="M810.41125,1205.9025 C739.3875,1197.30625 680.2775,1196.68125 655.115,1197.74 L655.115,1197.75125 L654.65625,1197.75125 L654.65625,1197.74 C629.775,1196.69125 571.75625,1197.30625 501.87625,1205.61125 L501.87625,226.84 C527.07125,215.4175 552.46375,207.60375 579.89375,194.26 C602.9525,183.0575 630.68875,166.6875 654.5875,155.3375 C675.73,166.6875 703.66,182.11875 725.3925,192.5525 C754.435,206.545 783.0025,215.49125 810.41125,227.94625 L810.41125,1205.9025" id="path28" fill="#FFFFFF"></path>
            <path d="M785.41125,242.389619 C780.328024,240.302785 774.483305,237.986199 767.065258,235.092985 C738.252443,223.855304 729.326821,220.198318 714.572411,213.089707 C704.808244,208.40194 693.550981,202.619872 679.709085,195.255568 C677.93838,194.3135 676.119702,193.342539 674.233963,192.332712 C670.397492,190.278254 661.502132,185.477118 654.074931,181.467486 C648.130166,184.500836 641.314986,188.109923 632.573278,192.818977 C631.586983,193.350283 630.554008,193.907361 629.355605,194.554151 C607.175197,206.525134 600.833857,209.880956 590.830012,214.741062 C576.470207,221.726613 568.268321,225.096906 541.011871,235.725519 C535.458285,237.891132 530.894704,239.695663 526.87625,241.329268 L526.87625,1180.79133 C576.757613,1176.01565 623.890059,1174.4833 654.886216,1175.72831 C686.528303,1174.45892 734.624145,1176.0593 785.41125,1181.02445 L785.41125,242.389619 Z" id="blauwe-rand,-nieuw-verbeterd" stroke="#2964B4" stroke-width="11"></path>
            <polyline id="path38" fill="#2964B4" points="603.40625 1125.2975 710.23125 1125.2975 710.23125 1081.76625 659.0075 1081.76625 659.0075 1028.5475 706.55 1028.5475 706.55 987.03625 659.0075 987.03625 659.0075 926.4225 714.26875 926.4225 714.26875 882.8925 603.40625 882.8925 603.40625 1125.2975"></polyline>
            <path d="M656.10125,495.76125 L655.57375,495.76125 L645.13875,386.62875 L666.53625,386.62875 L656.10125,495.76125 L656.10125,495.76125 Z M619.7,529.23125 L692.0125,529.23125 L721.175,286.80125 L675.92625,286.80125 L670.2975,345.08125 L641.36375,345.08125 L635.76,286.80125 L590.525,286.80125 L619.7,529.23125 L619.7,529.23125 Z" id="path40" fill="#2964B4"></path>
            <path d="M675.645,727.77875 L667.64875,734.84875 C652.875,747.88 647.14,754.79 644.9525,758.3 C642.0425,762.895 640.67375,767.48625 640.67375,772.3175 C640.67375,777.44 642.02125,781.3725 644.82125,784.34 C647.52625,787.2125 650.79625,788.54875 655.08875,788.54875 C659.3075,788.54875 662.47875,787.08125 665.1375,783.84875 C668.2975,780 670.4525,774.06125 671.57125,766.15375 L672.45875,759.8875 L725.16125,760.16375 L723.96,768.4475 C720.69,790.49625 712.56375,809.46625 702.17625,819.19125 C690.635,829.98625 675.2225,835.46875 656.41,835.46875 C646.55375,835.46875 637.42625,833.94 629.325,830.925 C621.14,827.9175 613.68375,823.3625 607.0975,817.37375 C594.0525,805.13625 587.42875,789.4375 587.42875,770.71875 C587.42875,758.555 590.4,746.5075 596.24,734.955 C601.96375,723.56875 610.17375,713.24375 620.53625,704.32375 L630.87625,695.345 C667.09625,664.54625 672.495,650.33625 672.495,644.66 C672.495,639.5625 671.08625,635.7175 668.16625,632.83 C665.17375,629.9725 661.12125,628.5525 655.7475,628.5525 C650.62875,628.5525 646.74375,630.5 643.54625,634.61125 C639.72375,639.5625 636.8875,647.47375 635.12125,658.19625 L634.0875,664.32875 L580.9525,663.6075 L581.84,655.67375 C584.54625,631.24625 593.28375,609.725 605.24375,598.0675 C618.2425,585.41875 635.23875,578.97375 655.7475,578.97375 C676.355,578.97375 693.52125,585.41875 706.695,598.0675 C720.01625,610.83125 726.74875,627.1325 726.74875,646.535 C726.74875,671.68625 710.015,698.2425 675.645,727.77875" id="path42" fill="#2964B4"></path>
            <path d="M139.635,708.64125 L150.84125,708.64125 L145.3475,743.38375 L145.1175,743.38375 L139.635,708.64125 Z M135.1525,678.59625 L121.71,678.59625 L136.605,759.51625 L153.85625,759.51625 L168.765,678.59625 L155.33375,678.59625 L152.8475,696.535 L137.6175,696.535 L135.1525,678.59625 L135.1525,678.59625 Z" id="path44" fill="#FFFFFF"></path>
            <path d="M190.73875,723.20875 L195.69375,723.20875 C203.205,723.20875 205.99375,726.0125 205.99375,735.6425 C205.99375,745.28375 203.205,748.10875 195.69375,748.10875 L190.73875,748.10875 L190.73875,723.20875 Z M190.73875,678.59625 L176.83,678.59625 L176.83,759.51625 L196.3525,759.51625 C211.92125,759.51625 219.865,752.915 219.865,735.6425 C219.865,722.63375 214.84125,717.39125 210.13,715.23875 L221.88625,678.59625 L207.785,678.59625 L197.92875,712.10375 C196.12375,711.89625 193.2025,711.765 190.73875,711.765 L190.73875,678.59625 L190.73875,678.59625 Z" id="path46" fill="#FFFFFF"></path>
            <polyline id="path48" fill="#FFFFFF" points="232.885 678.59625 232.885 759.51625 245.785 759.51625 262.70125 713.22125 262.94125 713.22125 262.94125 759.51625 275.49125 759.51625 275.49125 678.59625 263.39625 678.59625 245.665 729.13625 245.43625 729.13625 245.43625 678.59625 232.885 678.59625"></polyline>
            <polyline id="path50" fill="#FFFFFF" points="288.945 678.59625 288.945 759.51625 302.8425 759.51625 302.8425 726.56625 317.65 726.56625 317.65 759.51625 331.51 759.51625 331.51 678.59625 317.65 678.59625 317.65 714.46 302.8425 714.46 302.8425 678.59625 288.945 678.59625"></polyline>
            <polyline id="path52" fill="#FFFFFF" points="344.98875 678.59625 344.98875 759.51625 382.185 759.51625 382.185 747.41 358.88625 747.41 358.88625 726.56625 376.82125 726.56625 376.82125 714.46 358.88625 714.46 358.88625 690.7025 383.76875 690.7025 383.76875 678.59625 344.98875 678.59625"></polyline>
            <polyline id="path54" fill="#FFFFFF" points="450.46625 759.51625 450.46625 678.59625 438.35 678.59625 438.35 741.82125 438.12 741.82125 425.57 678.59625 418.86 678.59625 406.31 741.82125 406.05875 741.82125 406.05875 678.59625 393.96375 678.59625 393.96375 759.51625 412.2375 759.51625 422.1075 712.22375 422.3225 712.22375 432.1925 759.51625 450.46625 759.51625"></polyline>
            <path d="M898.69125,762.425 L884.86625,762.425 L884.86625,771.87375 C892.60625,775.8425 899.81875,780.06125 905.59,784.9875 L914.485,784.9875 L914.485,681.725 L898.69125,681.725 L898.69125,762.425" id="path56" fill="#FFFFFF"></path>
            <path d="M965.8675,761.4275 C965.8675,768.06125 962.91125,771.1775 957.6675,771.1775 C952.45,771.1775 949.46875,768.06125 949.46875,761.4275 L949.46875,744.5125 C949.46875,737.88875 952.45,734.77625 956.82625,734.77625 C959.92875,734.77625 963.72625,737.7325 965.8675,739.44 L965.8675,761.4275 Z M950.215,709.0975 L950.215,703.87875 C950.215,697.25625 952.45,694.155 957.6675,694.155 C962.91125,694.155 965.8675,697.25625 965.8675,703.87875 L965.8675,727.72 C961.34875,723.20875 958.535,720.95125 951.4675,720.95125 C941.32,720.95125 932.8075,726.86375 932.8075,741.8325 L932.8075,753.975 C932.8075,775.40875 940.21375,784.9875 957.6675,784.9875 C975.17375,784.9875 982.5275,776.25 982.5275,757.05125 L982.5275,708.245 C982.5275,689.0675 975.17375,680.33 957.6675,680.33 C943.84375,680.0425 934.97375,689.90875 934.97375,702.8925 L934.97375,709.0975 L950.215,709.0975 L950.215,709.0975 Z" id="path58" fill="#FFFFFF"></path>
            <path d="M1011.8375,711.21125 L1011.8375,703.0275 C1011.8375,697.53375 1014.94,694.155 1019.60375,694.155 C1025.08625,694.155 1028.21125,697.37625 1028.21125,706.5475 L1028.21125,729.67875 C1028.21125,736.3275 1024.84625,739.00625 1020.8775,739.00625 C1015.51875,739.00625 1012.99125,735.48625 1011.43,731.25125 L997.8925,731.25125 C998.44625,747.05 999.145,759.46875 999.145,783.5825 L1041.6275,783.5825 L1041.05125,769.20375 L1013.5225,769.20375 L1012.55875,747.195 L1012.82375,746.89375 C1017.2,752.11 1020.8775,752.83125 1026.24125,752.83125 C1039.6325,752.83125 1044.85,743.10625 1044.85,726.02375 L1044.85,711.9225 C1044.85,690.48875 1038.07,680.33 1021.14375,680.33 C1007.0525,680.33 996.0425,686.52 996.0425,703.44625 L996.0425,711.21125 L1011.8375,711.21125" id="path60" fill="#FFFFFF"></path>
            <path d="M1084.64125,719.255 L1084.64125,759.04625 L1084.375,759.04625 L1067.28125,719.255 L1084.64125,719.255 L1084.64125,719.255 Z M1084.375,706.27125 L1053.89,706.27125 L1053.89,719.255 L1083.5125,783.5825 L1100.43875,783.5825 L1100.43875,719.255 L1109.7675,719.255 L1109.7675,706.27125 L1100.43875,706.27125 L1100.43875,681.725 L1084.375,681.725 L1084.375,706.27125 L1084.375,706.27125 Z" id="path62" fill="#FFFFFF"></path>
            <path d="M719.095789,80.0450681 C715.337034,78.3022672 711.588168,76.4056358 707.76368,74.3264158 C700.687685,70.4794818 693.518888,66.111223 685.182767,60.6706909 C681.989209,58.5864293 678.722881,56.4115834 674.560935,53.608786 C673.353925,52.795944 666.277538,48.0157607 664.246109,46.650267 C661.414823,44.7471225 658.819964,43.019318 656.398507,41.4287641 C652.847987,43.7515953 648.333008,46.7191494 642.336541,50.662367 C637.921229,53.5658322 634.495535,55.8009569 631.137129,57.9617329 C615.075679,68.295561 602.595664,75.5552877 590.386725,81.2387732 C270.445045,229.955664 59.5063042,483.430172 36.7657208,732.504957 C111.439029,773.546528 159.56125,851.143856 159.56125,937.5425 C159.56125,980.808258 147.508946,1022.54581 124.15727,1059.86854 C151.090234,1113.68784 162.942816,1136.08506 183.700185,1172.11228 C210.870705,1219.26198 235.372841,1266.26823 256.829932,1310.98517 C260.995216,1319.66569 264.881133,1327.92003 268.479365,1335.70239 C332.988033,1306.23387 406.765124,1286.22659 485.414602,1274.33974 C550.274887,1264.53695 615.210241,1261.10545 656.221873,1262.99388 C696.967762,1261.10331 761.855555,1264.54036 826.651622,1274.34028 C905.272577,1286.23111 979.038825,1306.23877 1043.53938,1335.70212 C1047.13753,1327.91951 1051.02358,1319.66495 1055.18926,1310.98426 C1076.64916,1266.26477 1101.1612,1219.25597 1128.33108,1172.13832 C1149.14547,1135.94681 1160.10378,1115.33523 1187.83863,1059.91039 C1164.927,1023.36595 1152.475,981.351465 1152.475,937.5425 C1152.475,854.046102 1197.43769,778.7578 1267.8599,736.750046 C1270.29912,735.295014 1272.7689,733.879911 1275.26841,732.505777 C1274.99708,729.537574 1274.69904,726.568757 1274.37442,723.59951 C1247.38,476.685901 1036.57355,226.796641 719.095789,80.0450681 Z" id="witte-rand-nieuw" stroke="#FFFFFF" stroke-width="14"></path>
        </g>
    </g>
</svg>
