<svg width="651px" height="128px" viewBox="0 0 651 128" version="1.1" xmlns="http://www.w3.org/2000/svg" xmlns:xlink="http://www.w3.org/1999/xlink">
    <g id="Page-2" stroke="none" stroke-width="1" fill="none" fill-rule="evenodd">
        <g id="teamplan">
            <path d="M574.8,96 L574.8,34.8 L584.4,34.8 L584.4,45.36 L584.64,45.36 C585.600005,42.959988 586.819993,41.0200074 588.3,39.54 C589.780007,38.0599926 591.53999,36.9000042 593.58,36.06 C595.62001,35.2199958 597.959987,34.6400016 600.6,34.32 C603.240013,33.9999984 606.159984,33.84 609.36,33.84 L624.84,33.84 C629.640024,33.84 633.679984,34.3999944 636.96,35.52 C640.240016,36.6400056 642.85999,38.1599904 644.82,40.08 C646.78001,42.0000096 648.179996,44.2199874 649.02,46.74 C649.860004,49.2600126 650.28,51.8799864 650.28,54.6 L650.28,127.4 L639.96,127.4 L639.96,57.12 C639.96,54.8799888 639.720002,52.8400092 639.24,51 C638.759998,49.1599908 637.740008,47.6000064 636.18,46.32 C634.619992,45.0399936 632.360015,44.0400036 629.4,43.32 C626.439985,42.5999964 622.440025,42.24 617.4,42.24 L614.76,42.24 C608.75997,42.24 603.840019,42.5599968 600,43.2 C596.159981,43.8400032 593.140011,44.8799928 590.94,46.32 C588.739989,47.7600072 587.220004,49.6999878 586.38,52.14 C585.539996,54.5800122 585.12,57.599982 585.12,61.2 L585.12,96 L574.8,96 Z" id="n" fill="#5B686F"></path>
            <path d="M557.24,96 L557.24,89.88 L557,89.88 C556.279996,91.2400068 555.480004,92.3799954 554.6,93.3 C553.719996,94.2200046 552.500008,94.9599972 550.94,95.52 C549.379992,96.0800028 547.340013,96.459999 544.82,96.66 C542.299987,96.860001 539.08002,96.96 535.16,96.96 L510.44,96.96 C506.51998,96.96 503.300013,96.5400042 500.78,95.7 C498.259987,94.8599958 496.260007,93.6600078 494.78,92.1 C493.299993,90.5399922 492.260003,88.6200114 491.66,86.34 C491.059997,84.0599886 490.76,81.4800144 490.76,78.6 L490.76,74.52 C490.76,71.0799828 491.359994,68.3200104 492.56,66.24 C493.760006,64.1599896 495.539988,62.5800054 497.9,61.5 C500.260012,60.4199946 503.179983,59.7200016 506.66,59.4 C510.140017,59.0799984 514.119978,58.92 518.6,58.92 L535.16,58.92 C538.520017,58.92 541.379988,59.019999 543.74,59.22 C546.100012,59.420001 548.119992,59.7999972 549.8,60.36 C551.480008,60.9200028 552.879994,61.6799952 554,62.64 C555.120006,63.6000048 556.119996,64.7999928 557,66.24 L557.24,66.24 L557.24,54.72 C557.24,51.9999864 556.800004,49.8000084 555.92,48.12 C555.039996,46.4399916 553.660009,45.1800042 551.78,44.34 C549.899991,43.4999958 547.520014,42.9400014 544.64,42.66 C541.759986,42.3799986 538.36002,42.24 534.44,42.24 L519.32,42.24 C516.039984,42.24 513.40001,42.4199982 511.4,42.78 C509.39999,43.1400018 507.840006,43.6799964 506.72,44.4 C505.599994,45.1200036 504.840002,45.979995 504.44,46.98 C504.039998,47.980005 503.84,49.1199936 503.84,50.4 L503.84,52.56 L493.52,52.56 L493.52,49.56 C493.52,46.759986 493.979995,44.36001 494.9,42.36 C495.820005,40.35999 497.29999,38.7400062 499.34,37.5 C501.38001,36.2599938 504.019984,35.340003 507.26,34.74 C510.500016,34.139997 514.439977,33.84 519.08,33.84 L535.4,33.84 C540.200024,33.84 544.57998,34.0799976 548.54,34.56 C552.50002,35.0400024 555.879986,36.0399924 558.68,37.56 C561.480014,39.0800076 563.659992,41.2199862 565.22,43.98 C566.780008,46.7400138 567.56,50.3999772 567.56,54.96 L567.56,96 L557.24,96 Z M557.24,79.56 L557.24,76.8 C557.24,74.7199896 556.760005,73.0600062 555.8,71.82 C554.839995,70.5799938 553.40001,69.6200034 551.48,68.94 C549.55999,68.2599966 547.140015,67.820001 544.22,67.62 C541.299985,67.419999 537.88002,67.32 533.96,67.32 L518.12,67.32 C514.759983,67.32 512.000011,67.4599986 509.84,67.74 C507.679989,68.0200014 505.940007,68.5199964 504.62,69.24 C503.299993,69.9600036 502.380003,70.9399938 501.86,72.18 C501.339997,73.4200062 501.08,74.9999904 501.08,76.92 L501.08,78.84 C501.08,80.5200084 501.279998,81.9799938 501.68,83.22 C502.080002,84.4600062 502.879994,85.479996 504.08,86.28 C505.280006,87.080004 506.959989,87.6599982 509.12,88.02 C511.280011,88.3800018 514.119982,88.56 517.64,88.56 L531.32,88.56 C535.960023,88.56 539.939983,88.460001 543.26,88.26 C546.580017,88.059999 549.25999,87.6200034 551.3,86.94 C553.34001,86.2599966 554.839995,85.3400058 555.8,84.18 C556.760005,83.0199942 557.24,81.4800096 557.24,79.56 Z" id="a" fill="#5B686F"></path>
            <polygon id="l" fill="#5B686F" points="474.8 96 474.8 0.12 485.12 0.12 485.12 96"></polygon>
            <path d="M384.76,127.36 L384.76,43.8 C384.76,37 390,34 396,34 L407.08,34 L407.08,43.92 C408.040004,42.5599932 408.939995,41.280006 410.02,40.08 C411.100005,38.879994 412.479992,37.8200046 414.16,36.9 C415.840008,35.9799954 417.879988,35.2400028 420.28,34.68 C422.680012,34.1199972 425.559983,33.84 428.92,33.84 L435.52,33.84 C442.800036,33.84 448.599978,34.4599938 452.92,35.7 C457.240022,36.9400062 460.539989,38.6999886 462.82,40.98 C465.100011,43.2600114 466.579997,45.999984 467.26,49.2 C467.940003,52.400016 468.28,55.9599804 468.28,59.88 L468.28,70.92 C468.28,74.8400196 467.940003,78.399984 467.26,81.6 C466.579997,84.800016 465.100011,87.5399886 462.82,89.82 C460.539989,92.1000114 457.240022,93.8599938 452.92,95.1 C448.599978,96.3400062 442.800036,96.96 435.52,96.96 L430.84,96.96 C427.559984,96.96 424.780011,96.8200014 422.5,96.54 C420.219989,96.2599986 418.220009,95.7000042 416.5,94.86 C414.779991,94.0199958 413.260007,92.8400076 411.94,91.32 C410.619993,89.7999924 409.320006,87.840012 408.04,85.44 L407.8,117.36 C407.931727,123.455574 402.589727,127.36 396.646484,127.36 C392.684323,127.36 388.722161,127.36 384.76,127.36 Z M407.8,62.4 L407.8,68.4 C407.8,70.7200116 408.099997,72.5999928 408.7,74.04 C409.300003,75.4800072 410.179994,76.6199958 411.34,77.46 C412.500006,78.3000042 413.939991,78.8799984 415.66,79.2 C417.380009,79.5200016 419.399988,79.68 421.72,79.68 L433.84,79.68 C436.560014,79.68 438.739992,79.4400024 440.38,78.96 C442.020008,78.4799976 443.239996,77.8000044 444.04,76.92 C444.840004,76.0399956 445.359999,74.9200068 445.6,73.56 C445.840001,72.1999932 445.96,70.6800084 445.96,69 L445.96,61.8 C445.96,60.1199916 445.840001,58.6000068 445.6,57.24 C445.359999,55.8799932 444.840004,54.7600044 444.04,53.88 C443.239996,52.9999956 442.020008,52.3200024 440.38,51.84 C438.739992,51.3599976 436.560014,51.12 433.84,51.12 L421.72,51.12 C419.399988,51.12 417.380009,51.2799984 415.66,51.6 C413.939991,51.9200016 412.500006,52.4999958 411.34,53.34 C410.179994,54.1800042 409.300003,55.3199928 408.7,56.76 C408.099997,58.2000072 407.8,60.0799884 407.8,62.4 Z" id="p" fill="#0087D4"></path>
            <path d="M247.36,96 L247.36,34.8 L256.96,34.8 L256.96,42 C259.360011,38.799984 262.019984,36.6400056 265.18,35.52 C268.340016,34.3999944 272.519974,33.84 277.72,33.84 L294.4,33.84 C299.120024,33.84 303.199983,34.7599908 306.64,36.6 C310.080017,38.4400092 312.599992,41.2799808 314.2,45.12 C316.12001,40.9599792 319.05998,38.0400084 323.02,36.36 C326.98002,34.6799916 331.599974,33.84 336.88,33.84 L349.36,33.84 C357.680042,33.84 364.219976,35.5999824 368.98,39.12 C373.740024,42.6400176 376.12,47.9199648 376.12,54.96 L376.12,96 L365.8,96 L365.8,56.16 C365.8,54.3999912 365.560002,52.6800084 365.08,51 C364.599998,49.3199916 363.640007,47.8400064 362.2,46.56 C360.759993,45.2799936 358.760013,44.240004 356.2,43.44 C353.639987,42.639996 350.32002,42.24 346.24,42.24 L338.92,42.24 C334.279977,42.24 330.560014,42.6999954 327.76,43.62 C324.959986,44.5400046 322.820007,45.7799922 321.34,47.34 C319.859993,48.9000078 318.900002,50.7399894 318.46,52.86 C318.019998,54.9800106 317.8,57.2799876 317.8,59.76 L317.8,96 L307.48,96 L307.48,58.92 C307.48,55.9599852 307.200003,53.4200106 306.64,51.3 C306.079997,49.1799894 305.060007,47.4600066 303.58,46.14 C302.099993,44.8199934 300.040013,43.8400032 297.4,43.2 C294.759987,42.5599968 291.40002,42.24 287.32,42.24 L277,42.24 C270.359967,42.24 265.480016,43.5599868 262.36,46.2 C259.239984,48.8400132 257.68,52.6399752 257.68,57.6 L257.68,96 L247.36,96 Z" id="m" fill="#5B686F"></path>
            <path d="M229.8,96 L229.8,89.88 L229.56,89.88 C228.839996,91.2400068 228.040004,92.3799954 227.16,93.3 C226.279996,94.2200046 225.060008,94.9599972 223.5,95.52 C221.939992,96.0800028 219.900013,96.459999 217.38,96.66 C214.859987,96.860001 211.64002,96.96 207.72,96.96 L183,96.96 C179.07998,96.96 175.860013,96.5400042 173.34,95.7 C170.819987,94.8599958 168.820007,93.6600078 167.34,92.1 C165.859993,90.5399922 164.820003,88.6200114 164.22,86.34 C163.619997,84.0599886 163.32,81.4800144 163.32,78.6 L163.32,74.52 C163.32,71.0799828 163.919994,68.3200104 165.12,66.24 C166.320006,64.1599896 168.099988,62.5800054 170.46,61.5 C172.820012,60.4199946 175.739983,59.7200016 179.22,59.4 C182.700017,59.0799984 186.679978,58.92 191.16,58.92 L207.72,58.92 C211.080017,58.92 213.939988,59.019999 216.3,59.22 C218.660012,59.420001 220.679992,59.7999972 222.36,60.36 C224.040008,60.9200028 225.439994,61.6799952 226.56,62.64 C227.680006,63.6000048 228.679996,64.7999928 229.56,66.24 L229.8,66.24 L229.8,54.72 C229.8,51.9999864 229.360004,49.8000084 228.48,48.12 C227.599996,46.4399916 226.220009,45.1800042 224.34,44.34 C222.459991,43.4999958 220.080014,42.9400014 217.2,42.66 C214.319986,42.3799986 210.92002,42.24 207,42.24 L191.88,42.24 C188.599984,42.24 185.96001,42.4199982 183.96,42.78 C181.95999,43.1400018 180.400006,43.6799964 179.28,44.4 C178.159994,45.1200036 177.400002,45.979995 177,46.98 C176.599998,47.980005 176.4,49.1199936 176.4,50.4 L176.4,52.56 L166.08,52.56 L166.08,49.56 C166.08,46.759986 166.539995,44.36001 167.46,42.36 C168.380005,40.35999 169.85999,38.7400062 171.9,37.5 C173.94001,36.2599938 176.579984,35.340003 179.82,34.74 C183.060016,34.139997 186.999977,33.84 191.64,33.84 L207.96,33.84 C212.760024,33.84 217.13998,34.0799976 221.1,34.56 C225.06002,35.0400024 228.439986,36.0399924 231.24,37.56 C234.040014,39.0800076 236.219992,41.2199862 237.78,43.98 C239.340008,46.7400138 240.12,50.3999772 240.12,54.96 L240.12,96 L229.8,96 Z M229.8,79.56 L229.8,76.8 C229.8,74.7199896 229.320005,73.0600062 228.36,71.82 C227.399995,70.5799938 225.96001,69.6200034 224.04,68.94 C222.11999,68.2599966 219.700015,67.820001 216.78,67.62 C213.859985,67.419999 210.44002,67.32 206.52,67.32 L190.68,67.32 C187.319983,67.32 184.560011,67.4599986 182.4,67.74 C180.239989,68.0200014 178.500007,68.5199964 177.18,69.24 C175.859993,69.9600036 174.940003,70.9399938 174.42,72.18 C173.899997,73.4200062 173.64,74.9999904 173.64,76.92 L173.64,78.84 C173.64,80.5200084 173.839998,81.9799938 174.24,83.22 C174.640002,84.4600062 175.439994,85.479996 176.64,86.28 C177.840006,87.080004 179.519989,87.6599982 181.68,88.02 C183.840011,88.3800018 186.679982,88.56 190.2,88.56 L203.88,88.56 C208.520023,88.56 212.499983,88.460001 215.82,88.26 C219.140017,88.059999 221.81999,87.6200034 223.86,86.94 C225.90001,86.2599966 227.399995,85.3400058 228.36,84.18 C229.320005,83.0199942 229.8,81.4800096 229.8,79.56 Z" id="a" fill="#5B686F"></path>
            <path d="M79,71.88 L79,58.56 C79,53.0399724 79.8799912,48.6400164 81.64,45.36 C83.4000088,42.0799836 85.6999858,39.5800086 88.54,37.86 C91.3800142,36.1399914 94.5799822,35.0400024 98.14,34.56 C101.700018,34.0799976 105.319982,33.84 109,33.84 L125.56,33.84 C130.200023,33.84 134.459981,34.1999964 138.34,34.92 C142.220019,35.6400036 145.559986,36.9799902 148.36,38.94 C151.160014,40.9000098 153.359992,43.5999828 154.96,47.04 C156.560008,50.4800172 157.36,54.9199728 157.36,60.36 L157.36,67.2 L89.32,67.2 L89.32,71.04 C89.32,74.5600176 89.7599956,77.4399888 90.64,79.68 C91.5200044,81.9200112 92.9399902,83.6999934 94.9,85.02 C96.8600098,86.3400066 99.4199842,87.2599974 102.58,87.78 C105.740016,88.3000026 109.559978,88.56 114.04,88.56 L128.2,88.56 C131.400016,88.56 134.159988,88.4200014 136.48,88.14 C138.800012,87.8599986 140.719992,87.320004 142.24,86.52 C143.760008,85.719996 144.899996,84.6000072 145.66,83.16 C146.420004,81.7199928 146.879999,79.8400116 147.04,77.52 L157.36,77.52 L157.36,78.72 C157.36,82.2400176 156.660007,85.1599884 155.26,87.48 C153.859993,89.8000116 151.820013,91.659993 149.14,93.06 C146.459987,94.460007 143.220019,95.459997 139.42,96.06 C135.619981,96.660003 131.320024,96.96 126.52,96.96 L107.8,96.96 C104.439983,96.96 101.040017,96.7200024 97.6,96.24 C94.1599828,95.7599976 91.0600138,94.6400088 88.3,92.88 C85.5399862,91.1199912 83.3000086,88.6000164 81.58,85.32 C79.8599914,82.0399836 79,77.5600284 79,71.88 Z M147.04,58.8 L147.04,54.72 C147.04,53.1999924 146.700003,51.6800076 146.02,50.16 C145.339997,48.6399924 144.200008,47.3000058 142.6,46.14 C140.999992,44.9799942 138.800014,44.0400036 136,43.32 C133.199986,42.5999964 129.720021,42.24 125.56,42.24 L110.44,42.24 C106.35998,42.24 103.000013,42.4599978 100.36,42.9 C97.7199868,43.3400022 95.6200078,44.159994 94.06,45.36 C92.4999922,46.560006 91.3800034,48.2399892 90.7,50.4 C90.0199966,52.5600108 89.5600012,55.3599828 89.32,58.8 L147.04,58.8 Z" id="e" fill="#5B686F"></path>
            <path d="M12.44,75.6 C12.44,72.7733192 12.44,64.6933192 12.44,51.36 L0.92,51.36 L0.92,34.8 L12.44,34.8 L12.44,13 C12.44,7 17,3 24.4704961,3 L35.48,3 L35.48,34.8 L64.24,34.8 L64.24,51.36 L35.48,51.36 L35.48,74.88 C35.48,77.2000116 36.2599922,78.6999966 37.82,79.38 C39.3800078,80.0600034 41.559986,80.4 44.36,80.4 C48.1200188,80.4 50.6399936,79.8800052 51.92,78.84 C53.2000064,77.7999948 53.84,75.880014 53.84,73.08 C53.84,67 58,64.2 64,64.2 C66.5866667,64.2 69.92,64.2 74,64.2 L74,76.44 C74,79.3200144 73.500005,82.0199874 72.5,84.54 C71.499995,87.0600126 69.9600104,89.2399908 67.88,91.08 C65.7999896,92.9200092 63.1000166,94.3599948 59.78,95.4 C56.4599834,96.4400052 52.5200228,96.96 47.96,96.96 L38.84,96.96 C35.3199824,96.96 31.960016,96.6400032 28.76,96 C25.559984,95.3599968 22.760012,94.240008 20.36,92.64 C17.959988,91.039992 16.0400072,88.8600138 14.6,86.1 C13.1599928,83.3399862 12.44,79.8400212 12.44,75.6 Z" id="t" fill="#0087D4"></path>
        </g>
    </g>
</svg>
